<?xml version="1.0" encoding="utf-8"?>
<!-- Generator: Adobe Illustrator 19.1.0, SVG Export Plug-In . SVG Version: 6.00 Build 0)  -->
<!DOCTYPE svg PUBLIC "-//W3C//DTD SVG 1.0//EN" "http://www.w3.org/TR/2001/REC-SVG-20010904/DTD/svg10.dtd">
<svg version="1.0" id="Layer_1" xmlns="http://www.w3.org/2000/svg" xmlns:xlink="http://www.w3.org/1999/xlink" x="0px" y="0px"
	 viewBox="0 0 40 40" style="enable-background:new 0 0 40 40;" xml:space="preserve">
<style type="text/css">
	.st0{fill:#E5EAA4;}
	.st1{fill:#A8C4A2;fill-opacity:0.3;}
	.st2{fill:#A8C4A2;fill-opacity:0.6;}
	.st3{fill:#A8C4A2;fill-opacity:0.9;}
</style>
<g>
	<rect class="st0" width="40" height="40"/>
	<g>
		<circle class="st1" cx="35" cy="5" r="3"/>
		<circle class="st2" cx="35" cy="5" r="2"/>
		<circle class="st3" cx="35" cy="5" r="1"/>
	</g>
	<g>
		<circle class="st1" cx="25" cy="5" r="3"/>
		<circle class="st2" cx="25" cy="5" r="2"/>
		<circle class="st3" cx="25" cy="5" r="1"/>
	</g>
	<g>
		<circle class="st1" cx="15" cy="5" r="3"/>
		<circle class="st2" cx="15" cy="5" r="2"/>
		<circle class="st3" cx="15" cy="5" r="1"/>
	</g>
	<g>
		<circle class="st1" cx="5" cy="5" r="3"/>
		<circle class="st2" cx="5" cy="5" r="2"/>
		<circle class="st3" cx="5" cy="5" r="1"/>
	</g>
	<g>
		<circle class="st1" cx="35" cy="15" r="3"/>
		<circle class="st2" cx="35" cy="15" r="2"/>
		<circle class="st3" cx="35" cy="15" r="1"/>
	</g>
	<g>
		<circle class="st1" cx="25" cy="15" r="3"/>
		<circle class="st2" cx="25" cy="15" r="2"/>
		<circle class="st3" cx="25" cy="15" r="1"/>
	</g>
	<g>
		<circle class="st1" cx="15" cy="15" r="3"/>
		<circle class="st2" cx="15" cy="15" r="2"/>
		<circle class="st3" cx="15" cy="15" r="1"/>
	</g>
	<g>
		<circle class="st1" cx="5" cy="15" r="3"/>
		<circle class="st2" cx="5" cy="15" r="2"/>
		<circle class="st3" cx="5" cy="15" r="1"/>
	</g>
	<g>
		<circle class="st1" cx="35" cy="25" r="3"/>
		<circle class="st2" cx="35" cy="25" r="2"/>
		<circle class="st3" cx="35" cy="25" r="1"/>
	</g>
	<g>
		<circle class="st1" cx="25" cy="25" r="3"/>
		<circle class="st2" cx="25" cy="25" r="2"/>
		<circle class="st3" cx="25" cy="25" r="1"/>
	</g>
	<g>
		<circle class="st1" cx="15" cy="25" r="3"/>
		<circle class="st2" cx="15" cy="25" r="2"/>
		<circle class="st3" cx="15" cy="25" r="1"/>
	</g>
	<g>
		<circle class="st1" cx="5" cy="25" r="3"/>
		<circle class="st2" cx="5" cy="25" r="2"/>
		<circle class="st3" cx="5" cy="25" r="1"/>
	</g>
	<g>
		<circle class="st1" cx="35" cy="35" r="3"/>
		<circle class="st2" cx="35" cy="35" r="2"/>
		<circle class="st3" cx="35" cy="35" r="1"/>
	</g>
	<g>
		<circle class="st1" cx="25" cy="35" r="3"/>
		<circle class="st2" cx="25" cy="35" r="2"/>
		<circle class="st3" cx="25" cy="35" r="1"/>
	</g>
	<g>
		<circle class="st1" cx="15" cy="35" r="3"/>
		<circle class="st2" cx="15" cy="35" r="2"/>
		<circle class="st3" cx="15" cy="35" r="1"/>
	</g>
	<g>
		<circle class="st1" cx="5" cy="35" r="3"/>
		<circle class="st2" cx="5" cy="35" r="2"/>
		<circle class="st3" cx="5" cy="35" r="1"/>
	</g>
</g>
</svg>
