<?xml version="1.0" encoding="utf-8"?>
<!-- Generator: Adobe Illustrator 19.1.0, SVG Export Plug-In . SVG Version: 6.00 Build 0)  -->
<!DOCTYPE svg PUBLIC "-//W3C//DTD SVG 1.0//EN" "http://www.w3.org/TR/2001/REC-SVG-20010904/DTD/svg10.dtd">
<svg version="1.0" id="Layer_1" xmlns="http://www.w3.org/2000/svg" xmlns:xlink="http://www.w3.org/1999/xlink" x="0px" y="0px"
	 viewBox="0 0 40 40" style="enable-background:new 0 0 40 40;" xml:space="preserve">
<style type="text/css">
	.st0{fill:#E5EAA4;}
	.st1{fill:#A8C4A2;}
</style>
<g>
	<rect class="st0" width="40" height="40"/>
	<polygon class="st1" points="38,8 32,8 38,2 	"/>
	<polygon class="st1" points="28,18 22,18 28,12 	"/>
	<polygon class="st1" points="38,18 32,18 38,12 	"/>
	<polygon class="st1" points="18,28 12,28 18,22 	"/>
	<polygon class="st1" points="28,28 22,28 28,22 	"/>
	<polygon class="st1" points="38,28 32,28 38,22 	"/>
	<polygon class="st1" points="8,38 2,38 8,32 	"/>
	<polygon class="st1" points="18,38 12,38 18,32 	"/>
	<polygon class="st1" points="28,38 22,38 28,32 	"/>
	<polygon class="st1" points="38,38 32,38 38,32 	"/>
</g>
</svg>
