<?xml version="1.0" encoding="utf-8"?>
<!-- Generator: Adobe Illustrator 19.1.0, SVG Export Plug-In . SVG Version: 6.00 Build 0)  -->
<!DOCTYPE svg PUBLIC "-//W3C//DTD SVG 1.0//EN" "http://www.w3.org/TR/2001/REC-SVG-20010904/DTD/svg10.dtd">
<svg version="1.0" id="Layer_1" xmlns="http://www.w3.org/2000/svg" xmlns:xlink="http://www.w3.org/1999/xlink" x="0px" y="0px"
	 viewBox="0 0 40 40" style="enable-background:new 0 0 40 40;" xml:space="preserve">
<style type="text/css">
	.st0{fill:#E5EAA4;}
	.st1{fill:#A8C4A2;}
	.st2{fill:#66245B;}
</style>
<g>
	<rect class="st0" width="40" height="40"/>
	<rect x="4" y="2" class="st1" width="2" height="6"/>
	<rect x="4" y="12" class="st1" width="2" height="6"/>
	<rect x="4" y="22" class="st1" width="2" height="6"/>
	<rect x="4" y="32" class="st1" width="2" height="6"/>
	<rect x="14" y="2" class="st2" width="2" height="6"/>
	<rect x="14" y="12" class="st1" width="2" height="6"/>
	<rect x="14" y="22" class="st1" width="2" height="6"/>
	<rect x="14" y="32" class="st1" width="2" height="6"/>
	<rect x="24" y="2" class="st1" width="2" height="6"/>
	<rect x="24" y="12" class="st1" width="2" height="6"/>
	<rect x="24" y="22" class="st1" width="2" height="6"/>
	<rect x="24" y="32" class="st2" width="2" height="6"/>
	<rect x="34" y="2" class="st1" width="2" height="6"/>
	<rect x="34" y="12" class="st1" width="2" height="6"/>
	<rect x="34" y="22" class="st1" width="2" height="6"/>
	<rect x="34" y="32" class="st1" width="2" height="6"/>
</g>
</svg>
