<?xml version="1.0" encoding="utf-8"?>
<!-- Generator: Adobe Illustrator 19.1.0, SVG Export Plug-In . SVG Version: 6.00 Build 0)  -->
<!DOCTYPE svg PUBLIC "-//W3C//DTD SVG 1.0//EN" "http://www.w3.org/TR/2001/REC-SVG-20010904/DTD/svg10.dtd">
<svg version="1.0" id="Layer_1" xmlns="http://www.w3.org/2000/svg" xmlns:xlink="http://www.w3.org/1999/xlink" x="0px" y="0px"
	 viewBox="0 0 240 240" style="enable-background:new 0 0 240 240;" xml:space="preserve">
<style type="text/css">
	.st0{fill:#E5EAA4;}
	.st1{fill:#A8C4A2;}
	.st2{fill:#66245B;}
</style>
<g>
	<rect class="st0" width="240" height="240"/>
	<polygon class="st1" points="8,28 16,28 8,35 32,35 32,5 	"/>
	<polygon class="st1" points="48,28 56,28 48,35 72,35 72,5 	"/>
	<polygon class="st1" points="88,28 96,28 88,35 112,35 112,5 	"/>
	<polygon class="st1" points="128,28 136,28 128,35 152,35 152,5 	"/>
	<polygon class="st1" points="168,28 176,28 168,35 192,35 192,5 	"/>
	<polygon class="st1" points="208,28 216,28 208,35 232,35 232,5 	"/>
	<polygon class="st1" points="8,68 16,68 8,75 32,75 32,45 	"/>
	<polygon class="st2" points="48,68 56,68 48,75 72,75 72,45 	"/>
	<polygon class="st1" points="88,68 96,68 88,75 112,75 112,45 	"/>
	<polygon class="st1" points="128,68 136,68 128,75 152,75 152,45 	"/>
	<polygon class="st1" points="168,68 176,68 168,75 192,75 192,45 	"/>
	<polygon class="st1" points="208,68 216,68 208,75 232,75 232,45 	"/>
	<polygon class="st1" points="8,108 16,108 8,115 32,115 32,85 	"/>
	<polygon class="st1" points="48,108 56,108 48,115 72,115 72,85 	"/>
	<polygon class="st1" points="88,108 96,108 88,115 112,115 112,85 	"/>
	<polygon class="st1" points="128,108 136,108 128,115 152,115 152,85 	"/>
	<polygon class="st1" points="168,108 176,108 168,115 192,115 192,85 	"/>
	<polygon class="st1" points="208,108 216,108 208,115 232,115 232,85 	"/>
	<polygon class="st1" points="8,148 16,148 8,155 32,155 32,125 	"/>
	<polygon class="st1" points="48,148 56,148 48,155 72,155 72,125 	"/>
	<polygon class="st1" points="88,148 96,148 88,155 112,155 112,125 	"/>
	<polygon class="st1" points="128,148 136,148 128,155 152,155 152,125 	"/>
	<polygon class="st1" points="168,148 176,148 168,155 192,155 192,125 	"/>
	<polygon class="st1" points="208,148 216,148 208,155 232,155 232,125 	"/>
	<polygon class="st1" points="8,188 16,188 8,195 32,195 32,165 	"/>
	<polygon class="st1" points="48,188 56,188 48,195 72,195 72,165 	"/>
	<polygon class="st1" points="88,188 96,188 88,195 112,195 112,165 	"/>
	<polygon class="st1" points="128,188 136,188 128,195 152,195 152,165 	"/>
	<polygon class="st2" points="168,188 176,188 168,195 192,195 192,165 	"/>
	<polygon class="st1" points="208,188 216,188 208,195 232,195 232,165 	"/>
	<polygon class="st1" points="8,228 16,228 8,235 32,235 32,205 	"/>
	<polygon class="st1" points="48,228 56,228 48,235 72,235 72,205 	"/>
	<polygon class="st1" points="88,228 96,228 88,235 112,235 112,205 	"/>
	<polygon class="st1" points="128,228 136,228 128,235 152,235 152,205 	"/>
	<polygon class="st1" points="168,228 176,228 168,235 192,235 192,205 	"/>
	<polygon class="st1" points="208,228 216,228 208,235 232,235 232,205 	"/>
</g>
<g>
	<g>
		<rect x="204" y="2" class="st1" width="2" height="6"/>
		<rect x="204" y="12" class="st1" width="2" height="6"/>
		<rect x="204" y="22" class="st1" width="2" height="6"/>
		<rect x="204" y="32" class="st1" width="2" height="6"/>
		<rect x="214" y="2" class="st2" width="2" height="6"/>
		<rect x="214" y="12" class="st1" width="2" height="6"/>
		<rect x="224" y="2" class="st1" width="2" height="6"/>
		<rect x="234" y="2" class="st1" width="2" height="6"/>
		<rect x="234" y="12" class="st1" width="2" height="6"/>
		<rect x="234" y="22" class="st1" width="2" height="6"/>
		<rect x="234" y="32" class="st1" width="2" height="6"/>
	</g>
	<g>
		<rect x="164" y="2" class="st1" width="2" height="6"/>
		<rect x="164" y="12" class="st1" width="2" height="6"/>
		<rect x="164" y="22" class="st1" width="2" height="6"/>
		<rect x="164" y="32" class="st1" width="2" height="6"/>
		<rect x="174" y="2" class="st2" width="2" height="6"/>
		<rect x="174" y="12" class="st1" width="2" height="6"/>
		<rect x="184" y="2" class="st1" width="2" height="6"/>
		<rect x="194" y="2" class="st1" width="2" height="6"/>
		<rect x="194" y="12" class="st1" width="2" height="6"/>
		<rect x="194" y="22" class="st1" width="2" height="6"/>
		<rect x="194" y="32" class="st1" width="2" height="6"/>
	</g>
	<g>
		<rect x="124" y="2" class="st1" width="2" height="6"/>
		<rect x="124" y="12" class="st1" width="2" height="6"/>
		<rect x="124" y="22" class="st1" width="2" height="6"/>
		<rect x="124" y="32" class="st1" width="2" height="6"/>
		<rect x="134" y="2" class="st2" width="2" height="6"/>
		<rect x="134" y="12" class="st1" width="2" height="6"/>
		<rect x="144" y="2" class="st1" width="2" height="6"/>
		<rect x="154" y="2" class="st1" width="2" height="6"/>
		<rect x="154" y="12" class="st1" width="2" height="6"/>
		<rect x="154" y="22" class="st1" width="2" height="6"/>
		<rect x="154" y="32" class="st1" width="2" height="6"/>
	</g>
	<g>
		<rect x="84" y="2" class="st1" width="2" height="6"/>
		<rect x="84" y="12" class="st1" width="2" height="6"/>
		<rect x="84" y="22" class="st1" width="2" height="6"/>
		<rect x="84" y="32" class="st1" width="2" height="6"/>
		<rect x="94" y="2" class="st2" width="2" height="6"/>
		<rect x="94" y="12" class="st1" width="2" height="6"/>
		<rect x="104" y="2" class="st1" width="2" height="6"/>
		<rect x="114" y="2" class="st1" width="2" height="6"/>
		<rect x="114" y="12" class="st1" width="2" height="6"/>
		<rect x="114" y="22" class="st1" width="2" height="6"/>
		<rect x="114" y="32" class="st1" width="2" height="6"/>
	</g>
	<g>
		<rect x="44" y="2" class="st1" width="2" height="6"/>
		<rect x="44" y="12" class="st1" width="2" height="6"/>
		<rect x="44" y="22" class="st1" width="2" height="6"/>
		<rect x="44" y="32" class="st1" width="2" height="6"/>
		<rect x="54" y="2" class="st2" width="2" height="6"/>
		<rect x="54" y="12" class="st1" width="2" height="6"/>
		<rect x="64" y="2" class="st1" width="2" height="6"/>
		<rect x="74" y="2" class="st1" width="2" height="6"/>
		<rect x="74" y="12" class="st1" width="2" height="6"/>
		<rect x="74" y="22" class="st1" width="2" height="6"/>
		<rect x="74" y="32" class="st1" width="2" height="6"/>
	</g>
	<g>
		<rect x="4" y="2" class="st1" width="2" height="6"/>
		<rect x="4" y="12" class="st1" width="2" height="6"/>
		<rect x="4" y="22" class="st1" width="2" height="6"/>
		<rect x="4" y="32" class="st1" width="2" height="6"/>
		<rect x="14" y="2" class="st2" width="2" height="6"/>
		<rect x="14" y="12" class="st1" width="2" height="6"/>
		<rect x="24" y="2" class="st1" width="2" height="6"/>
		<rect x="34" y="2" class="st1" width="2" height="6"/>
		<rect x="34" y="12" class="st1" width="2" height="6"/>
		<rect x="34" y="22" class="st1" width="2" height="6"/>
		<rect x="34" y="32" class="st1" width="2" height="6"/>
	</g>
</g>
<g>
	<g>
		<rect x="204" y="42" class="st1" width="2" height="6"/>
		<rect x="204" y="52" class="st1" width="2" height="6"/>
		<rect x="204" y="62" class="st1" width="2" height="6"/>
		<rect x="204" y="72" class="st1" width="2" height="6"/>
		<rect x="214" y="42" class="st2" width="2" height="6"/>
		<rect x="214" y="52" class="st1" width="2" height="6"/>
		<rect x="224" y="42" class="st1" width="2" height="6"/>
		<rect x="234" y="42" class="st1" width="2" height="6"/>
		<rect x="234" y="52" class="st1" width="2" height="6"/>
		<rect x="234" y="62" class="st1" width="2" height="6"/>
		<rect x="234" y="72" class="st1" width="2" height="6"/>
	</g>
	<g>
		<rect x="164" y="42" class="st1" width="2" height="6"/>
		<rect x="164" y="52" class="st1" width="2" height="6"/>
		<rect x="164" y="62" class="st1" width="2" height="6"/>
		<rect x="164" y="72" class="st1" width="2" height="6"/>
		<rect x="174" y="42" class="st2" width="2" height="6"/>
		<rect x="174" y="52" class="st1" width="2" height="6"/>
		<rect x="184" y="42" class="st1" width="2" height="6"/>
		<rect x="194" y="42" class="st1" width="2" height="6"/>
		<rect x="194" y="52" class="st1" width="2" height="6"/>
		<rect x="194" y="62" class="st1" width="2" height="6"/>
		<rect x="194" y="72" class="st1" width="2" height="6"/>
	</g>
	<g>
		<rect x="124" y="42" class="st1" width="2" height="6"/>
		<rect x="124" y="52" class="st1" width="2" height="6"/>
		<rect x="124" y="62" class="st1" width="2" height="6"/>
		<rect x="124" y="72" class="st1" width="2" height="6"/>
		<rect x="134" y="42" class="st2" width="2" height="6"/>
		<rect x="134" y="52" class="st1" width="2" height="6"/>
		<rect x="144" y="42" class="st1" width="2" height="6"/>
		<rect x="154" y="42" class="st1" width="2" height="6"/>
		<rect x="154" y="52" class="st1" width="2" height="6"/>
		<rect x="154" y="62" class="st1" width="2" height="6"/>
		<rect x="154" y="72" class="st1" width="2" height="6"/>
	</g>
	<g>
		<rect x="84" y="42" class="st1" width="2" height="6"/>
		<rect x="84" y="52" class="st1" width="2" height="6"/>
		<rect x="84" y="62" class="st1" width="2" height="6"/>
		<rect x="84" y="72" class="st1" width="2" height="6"/>
		<rect x="94" y="42" class="st2" width="2" height="6"/>
		<rect x="94" y="52" class="st1" width="2" height="6"/>
		<rect x="104" y="42" class="st1" width="2" height="6"/>
		<rect x="114" y="42" class="st1" width="2" height="6"/>
		<rect x="114" y="52" class="st1" width="2" height="6"/>
		<rect x="114" y="62" class="st1" width="2" height="6"/>
		<rect x="114" y="72" class="st1" width="2" height="6"/>
	</g>
	<g>
		<rect x="44" y="42" class="st1" width="2" height="6"/>
		<rect x="44" y="52" class="st1" width="2" height="6"/>
		<rect x="44" y="62" class="st1" width="2" height="6"/>
		<rect x="44" y="72" class="st1" width="2" height="6"/>
		<rect x="54" y="42" class="st2" width="2" height="6"/>
		<rect x="54" y="52" class="st1" width="2" height="6"/>
		<rect x="64" y="42" class="st1" width="2" height="6"/>
		<rect x="74" y="42" class="st1" width="2" height="6"/>
		<rect x="74" y="52" class="st1" width="2" height="6"/>
		<rect x="74" y="62" class="st1" width="2" height="6"/>
		<rect x="74" y="72" class="st1" width="2" height="6"/>
	</g>
	<g>
		<rect x="4" y="42" class="st1" width="2" height="6"/>
		<rect x="4" y="52" class="st1" width="2" height="6"/>
		<rect x="4" y="62" class="st1" width="2" height="6"/>
		<rect x="4" y="72" class="st1" width="2" height="6"/>
		<rect x="14" y="42" class="st2" width="2" height="6"/>
		<rect x="14" y="52" class="st1" width="2" height="6"/>
		<rect x="24" y="42" class="st1" width="2" height="6"/>
		<rect x="34" y="42" class="st1" width="2" height="6"/>
		<rect x="34" y="52" class="st1" width="2" height="6"/>
		<rect x="34" y="62" class="st1" width="2" height="6"/>
		<rect x="34" y="72" class="st1" width="2" height="6"/>
	</g>
</g>
<g>
	<g>
		<rect x="204" y="82" class="st1" width="2" height="6"/>
		<rect x="204" y="92" class="st1" width="2" height="6"/>
		<rect x="204" y="102" class="st1" width="2" height="6"/>
		<rect x="204" y="112" class="st1" width="2" height="6"/>
		<rect x="214" y="82" class="st2" width="2" height="6"/>
		<rect x="214" y="92" class="st1" width="2" height="6"/>
		<rect x="224" y="82" class="st1" width="2" height="6"/>
		<rect x="234" y="82" class="st1" width="2" height="6"/>
		<rect x="234" y="92" class="st1" width="2" height="6"/>
		<rect x="234" y="102" class="st1" width="2" height="6"/>
		<rect x="234" y="112" class="st1" width="2" height="6"/>
	</g>
	<g>
		<rect x="164" y="82" class="st1" width="2" height="6"/>
		<rect x="164" y="92" class="st1" width="2" height="6"/>
		<rect x="164" y="102" class="st1" width="2" height="6"/>
		<rect x="164" y="112" class="st1" width="2" height="6"/>
		<rect x="174" y="82" class="st2" width="2" height="6"/>
		<rect x="174" y="92" class="st1" width="2" height="6"/>
		<rect x="184" y="82" class="st1" width="2" height="6"/>
		<rect x="194" y="82" class="st1" width="2" height="6"/>
		<rect x="194" y="92" class="st1" width="2" height="6"/>
		<rect x="194" y="102" class="st1" width="2" height="6"/>
		<rect x="194" y="112" class="st1" width="2" height="6"/>
	</g>
	<g>
		<rect x="124" y="82" class="st1" width="2" height="6"/>
		<rect x="124" y="92" class="st1" width="2" height="6"/>
		<rect x="124" y="102" class="st1" width="2" height="6"/>
		<rect x="124" y="112" class="st1" width="2" height="6"/>
		<rect x="134" y="82" class="st2" width="2" height="6"/>
		<rect x="134" y="92" class="st1" width="2" height="6"/>
		<rect x="144" y="82" class="st1" width="2" height="6"/>
		<rect x="154" y="82" class="st1" width="2" height="6"/>
		<rect x="154" y="92" class="st1" width="2" height="6"/>
		<rect x="154" y="102" class="st1" width="2" height="6"/>
		<rect x="154" y="112" class="st1" width="2" height="6"/>
	</g>
	<g>
		<rect x="84" y="82" class="st1" width="2" height="6"/>
		<rect x="84" y="92" class="st1" width="2" height="6"/>
		<rect x="84" y="102" class="st1" width="2" height="6"/>
		<rect x="84" y="112" class="st1" width="2" height="6"/>
		<rect x="94" y="82" class="st2" width="2" height="6"/>
		<rect x="94" y="92" class="st1" width="2" height="6"/>
		<rect x="104" y="82" class="st1" width="2" height="6"/>
		<rect x="114" y="82" class="st1" width="2" height="6"/>
		<rect x="114" y="92" class="st1" width="2" height="6"/>
		<rect x="114" y="102" class="st1" width="2" height="6"/>
		<rect x="114" y="112" class="st1" width="2" height="6"/>
	</g>
	<g>
		<rect x="44" y="82" class="st1" width="2" height="6"/>
		<rect x="44" y="92" class="st1" width="2" height="6"/>
		<rect x="44" y="102" class="st1" width="2" height="6"/>
		<rect x="44" y="112" class="st1" width="2" height="6"/>
		<rect x="54" y="82" class="st2" width="2" height="6"/>
		<rect x="54" y="92" class="st1" width="2" height="6"/>
		<rect x="64" y="82" class="st1" width="2" height="6"/>
		<rect x="74" y="82" class="st1" width="2" height="6"/>
		<rect x="74" y="92" class="st1" width="2" height="6"/>
		<rect x="74" y="102" class="st1" width="2" height="6"/>
		<rect x="74" y="112" class="st1" width="2" height="6"/>
	</g>
	<g>
		<rect x="4" y="82" class="st1" width="2" height="6"/>
		<rect x="4" y="92" class="st1" width="2" height="6"/>
		<rect x="4" y="102" class="st1" width="2" height="6"/>
		<rect x="4" y="112" class="st1" width="2" height="6"/>
		<rect x="14" y="82" class="st2" width="2" height="6"/>
		<rect x="14" y="92" class="st1" width="2" height="6"/>
		<rect x="24" y="82" class="st1" width="2" height="6"/>
		<rect x="34" y="82" class="st1" width="2" height="6"/>
		<rect x="34" y="92" class="st1" width="2" height="6"/>
		<rect x="34" y="102" class="st1" width="2" height="6"/>
		<rect x="34" y="112" class="st1" width="2" height="6"/>
	</g>
</g>
<g>
	<g>
		<rect x="204" y="122" class="st1" width="2" height="6"/>
		<rect x="204" y="132" class="st1" width="2" height="6"/>
		<rect x="204" y="142" class="st1" width="2" height="6"/>
		<rect x="204" y="152" class="st1" width="2" height="6"/>
		<rect x="214" y="122" class="st2" width="2" height="6"/>
		<rect x="214" y="132" class="st1" width="2" height="6"/>
		<rect x="224" y="122" class="st1" width="2" height="6"/>
		<rect x="234" y="122" class="st1" width="2" height="6"/>
		<rect x="234" y="132" class="st1" width="2" height="6"/>
		<rect x="234" y="142" class="st1" width="2" height="6"/>
		<rect x="234" y="152" class="st1" width="2" height="6"/>
	</g>
	<g>
		<rect x="164" y="122" class="st1" width="2" height="6"/>
		<rect x="164" y="132" class="st1" width="2" height="6"/>
		<rect x="164" y="142" class="st1" width="2" height="6"/>
		<rect x="164" y="152" class="st1" width="2" height="6"/>
		<rect x="174" y="122" class="st2" width="2" height="6"/>
		<rect x="174" y="132" class="st1" width="2" height="6"/>
		<rect x="184" y="122" class="st1" width="2" height="6"/>
		<rect x="194" y="122" class="st1" width="2" height="6"/>
		<rect x="194" y="132" class="st1" width="2" height="6"/>
		<rect x="194" y="142" class="st1" width="2" height="6"/>
		<rect x="194" y="152" class="st1" width="2" height="6"/>
	</g>
	<g>
		<rect x="124" y="122" class="st1" width="2" height="6"/>
		<rect x="124" y="132" class="st1" width="2" height="6"/>
		<rect x="124" y="142" class="st1" width="2" height="6"/>
		<rect x="124" y="152" class="st1" width="2" height="6"/>
		<rect x="134" y="122" class="st2" width="2" height="6"/>
		<rect x="134" y="132" class="st1" width="2" height="6"/>
		<rect x="144" y="122" class="st1" width="2" height="6"/>
		<rect x="154" y="122" class="st1" width="2" height="6"/>
		<rect x="154" y="132" class="st1" width="2" height="6"/>
		<rect x="154" y="142" class="st1" width="2" height="6"/>
		<rect x="154" y="152" class="st1" width="2" height="6"/>
	</g>
	<g>
		<rect x="84" y="122" class="st1" width="2" height="6"/>
		<rect x="84" y="132" class="st1" width="2" height="6"/>
		<rect x="84" y="142" class="st1" width="2" height="6"/>
		<rect x="84" y="152" class="st1" width="2" height="6"/>
		<rect x="94" y="122" class="st2" width="2" height="6"/>
		<rect x="94" y="132" class="st1" width="2" height="6"/>
		<rect x="104" y="122" class="st1" width="2" height="6"/>
		<rect x="114" y="122" class="st1" width="2" height="6"/>
		<rect x="114" y="132" class="st1" width="2" height="6"/>
		<rect x="114" y="142" class="st1" width="2" height="6"/>
		<rect x="114" y="152" class="st1" width="2" height="6"/>
	</g>
	<g>
		<rect x="44" y="122" class="st1" width="2" height="6"/>
		<rect x="44" y="132" class="st1" width="2" height="6"/>
		<rect x="44" y="142" class="st1" width="2" height="6"/>
		<rect x="44" y="152" class="st1" width="2" height="6"/>
		<rect x="54" y="122" class="st2" width="2" height="6"/>
		<rect x="54" y="132" class="st1" width="2" height="6"/>
		<rect x="64" y="122" class="st1" width="2" height="6"/>
		<rect x="74" y="122" class="st1" width="2" height="6"/>
		<rect x="74" y="132" class="st1" width="2" height="6"/>
		<rect x="74" y="142" class="st1" width="2" height="6"/>
		<rect x="74" y="152" class="st1" width="2" height="6"/>
	</g>
	<g>
		<rect x="4" y="122" class="st1" width="2" height="6"/>
		<rect x="4" y="132" class="st1" width="2" height="6"/>
		<rect x="4" y="142" class="st1" width="2" height="6"/>
		<rect x="4" y="152" class="st1" width="2" height="6"/>
		<rect x="14" y="122" class="st2" width="2" height="6"/>
		<rect x="14" y="132" class="st1" width="2" height="6"/>
		<rect x="24" y="122" class="st1" width="2" height="6"/>
		<rect x="34" y="122" class="st1" width="2" height="6"/>
		<rect x="34" y="132" class="st1" width="2" height="6"/>
		<rect x="34" y="142" class="st1" width="2" height="6"/>
		<rect x="34" y="152" class="st1" width="2" height="6"/>
	</g>
</g>
<g>
	<g>
		<rect x="204" y="162" class="st1" width="2" height="6"/>
		<rect x="204" y="172" class="st1" width="2" height="6"/>
		<rect x="204" y="182" class="st1" width="2" height="6"/>
		<rect x="204" y="192" class="st1" width="2" height="6"/>
		<rect x="214" y="162" class="st2" width="2" height="6"/>
		<rect x="214" y="172" class="st1" width="2" height="6"/>
		<rect x="224" y="162" class="st1" width="2" height="6"/>
		<rect x="234" y="162" class="st1" width="2" height="6"/>
		<rect x="234" y="172" class="st1" width="2" height="6"/>
		<rect x="234" y="182" class="st1" width="2" height="6"/>
		<rect x="234" y="192" class="st1" width="2" height="6"/>
	</g>
	<g>
		<rect x="164" y="162" class="st1" width="2" height="6"/>
		<rect x="164" y="172" class="st1" width="2" height="6"/>
		<rect x="164" y="182" class="st1" width="2" height="6"/>
		<rect x="164" y="192" class="st1" width="2" height="6"/>
		<rect x="174" y="162" class="st2" width="2" height="6"/>
		<rect x="174" y="172" class="st1" width="2" height="6"/>
		<rect x="184" y="162" class="st1" width="2" height="6"/>
		<rect x="194" y="162" class="st1" width="2" height="6"/>
		<rect x="194" y="172" class="st1" width="2" height="6"/>
		<rect x="194" y="182" class="st1" width="2" height="6"/>
		<rect x="194" y="192" class="st1" width="2" height="6"/>
	</g>
	<g>
		<rect x="124" y="162" class="st1" width="2" height="6"/>
		<rect x="124" y="172" class="st1" width="2" height="6"/>
		<rect x="124" y="182" class="st1" width="2" height="6"/>
		<rect x="124" y="192" class="st1" width="2" height="6"/>
		<rect x="134" y="162" class="st2" width="2" height="6"/>
		<rect x="134" y="172" class="st1" width="2" height="6"/>
		<rect x="144" y="162" class="st1" width="2" height="6"/>
		<rect x="154" y="162" class="st1" width="2" height="6"/>
		<rect x="154" y="172" class="st1" width="2" height="6"/>
		<rect x="154" y="182" class="st1" width="2" height="6"/>
		<rect x="154" y="192" class="st1" width="2" height="6"/>
	</g>
	<g>
		<rect x="84" y="162" class="st1" width="2" height="6"/>
		<rect x="84" y="172" class="st1" width="2" height="6"/>
		<rect x="84" y="182" class="st1" width="2" height="6"/>
		<rect x="84" y="192" class="st1" width="2" height="6"/>
		<rect x="94" y="162" class="st2" width="2" height="6"/>
		<rect x="94" y="172" class="st1" width="2" height="6"/>
		<rect x="104" y="162" class="st1" width="2" height="6"/>
		<rect x="114" y="162" class="st1" width="2" height="6"/>
		<rect x="114" y="172" class="st1" width="2" height="6"/>
		<rect x="114" y="182" class="st1" width="2" height="6"/>
		<rect x="114" y="192" class="st1" width="2" height="6"/>
	</g>
	<g>
		<rect x="44" y="162" class="st1" width="2" height="6"/>
		<rect x="44" y="172" class="st1" width="2" height="6"/>
		<rect x="44" y="182" class="st1" width="2" height="6"/>
		<rect x="44" y="192" class="st1" width="2" height="6"/>
		<rect x="54" y="162" class="st2" width="2" height="6"/>
		<rect x="54" y="172" class="st1" width="2" height="6"/>
		<rect x="64" y="162" class="st1" width="2" height="6"/>
		<rect x="74" y="162" class="st1" width="2" height="6"/>
		<rect x="74" y="172" class="st1" width="2" height="6"/>
		<rect x="74" y="182" class="st1" width="2" height="6"/>
		<rect x="74" y="192" class="st1" width="2" height="6"/>
	</g>
	<g>
		<rect x="4" y="162" class="st1" width="2" height="6"/>
		<rect x="4" y="172" class="st1" width="2" height="6"/>
		<rect x="4" y="182" class="st1" width="2" height="6"/>
		<rect x="4" y="192" class="st1" width="2" height="6"/>
		<rect x="14" y="162" class="st2" width="2" height="6"/>
		<rect x="14" y="172" class="st1" width="2" height="6"/>
		<rect x="24" y="162" class="st1" width="2" height="6"/>
		<rect x="34" y="162" class="st1" width="2" height="6"/>
		<rect x="34" y="172" class="st1" width="2" height="6"/>
		<rect x="34" y="182" class="st1" width="2" height="6"/>
		<rect x="34" y="192" class="st1" width="2" height="6"/>
	</g>
</g>
<g>
	<g>
		<rect x="204" y="202" class="st1" width="2" height="6"/>
		<rect x="204" y="212" class="st1" width="2" height="6"/>
		<rect x="204" y="222" class="st1" width="2" height="6"/>
		<rect x="204" y="232" class="st1" width="2" height="6"/>
		<rect x="214" y="202" class="st2" width="2" height="6"/>
		<rect x="214" y="212" class="st1" width="2" height="6"/>
		<rect x="224" y="202" class="st1" width="2" height="6"/>
		<rect x="234" y="202" class="st1" width="2" height="6"/>
		<rect x="234" y="212" class="st1" width="2" height="6"/>
		<rect x="234" y="222" class="st1" width="2" height="6"/>
		<rect x="234" y="232" class="st1" width="2" height="6"/>
	</g>
	<g>
		<rect x="164" y="202" class="st1" width="2" height="6"/>
		<rect x="164" y="212" class="st1" width="2" height="6"/>
		<rect x="164" y="222" class="st1" width="2" height="6"/>
		<rect x="164" y="232" class="st1" width="2" height="6"/>
		<rect x="174" y="202" class="st2" width="2" height="6"/>
		<rect x="174" y="212" class="st1" width="2" height="6"/>
		<rect x="184" y="202" class="st1" width="2" height="6"/>
		<rect x="194" y="202" class="st1" width="2" height="6"/>
		<rect x="194" y="212" class="st1" width="2" height="6"/>
		<rect x="194" y="222" class="st1" width="2" height="6"/>
		<rect x="194" y="232" class="st1" width="2" height="6"/>
	</g>
	<g>
		<rect x="124" y="202" class="st1" width="2" height="6"/>
		<rect x="124" y="212" class="st1" width="2" height="6"/>
		<rect x="124" y="222" class="st1" width="2" height="6"/>
		<rect x="124" y="232" class="st1" width="2" height="6"/>
		<rect x="134" y="202" class="st2" width="2" height="6"/>
		<rect x="134" y="212" class="st1" width="2" height="6"/>
		<rect x="144" y="202" class="st1" width="2" height="6"/>
		<rect x="154" y="202" class="st1" width="2" height="6"/>
		<rect x="154" y="212" class="st1" width="2" height="6"/>
		<rect x="154" y="222" class="st1" width="2" height="6"/>
		<rect x="154" y="232" class="st1" width="2" height="6"/>
	</g>
	<g>
		<rect x="84" y="202" class="st1" width="2" height="6"/>
		<rect x="84" y="212" class="st1" width="2" height="6"/>
		<rect x="84" y="222" class="st1" width="2" height="6"/>
		<rect x="84" y="232" class="st1" width="2" height="6"/>
		<rect x="94" y="202" class="st2" width="2" height="6"/>
		<rect x="94" y="212" class="st1" width="2" height="6"/>
		<rect x="104" y="202" class="st1" width="2" height="6"/>
		<rect x="114" y="202" class="st1" width="2" height="6"/>
		<rect x="114" y="212" class="st1" width="2" height="6"/>
		<rect x="114" y="222" class="st1" width="2" height="6"/>
		<rect x="114" y="232" class="st1" width="2" height="6"/>
	</g>
	<g>
		<rect x="44" y="202" class="st1" width="2" height="6"/>
		<rect x="44" y="212" class="st1" width="2" height="6"/>
		<rect x="44" y="222" class="st1" width="2" height="6"/>
		<rect x="44" y="232" class="st1" width="2" height="6"/>
		<rect x="54" y="202" class="st2" width="2" height="6"/>
		<rect x="54" y="212" class="st1" width="2" height="6"/>
		<rect x="64" y="202" class="st1" width="2" height="6"/>
		<rect x="74" y="202" class="st1" width="2" height="6"/>
		<rect x="74" y="212" class="st1" width="2" height="6"/>
		<rect x="74" y="222" class="st1" width="2" height="6"/>
		<rect x="74" y="232" class="st1" width="2" height="6"/>
	</g>
	<g>
		<rect x="4" y="202" class="st1" width="2" height="6"/>
		<rect x="4" y="212" class="st1" width="2" height="6"/>
		<rect x="4" y="222" class="st1" width="2" height="6"/>
		<rect x="4" y="232" class="st1" width="2" height="6"/>
		<rect x="14" y="202" class="st2" width="2" height="6"/>
		<rect x="14" y="212" class="st1" width="2" height="6"/>
		<rect x="24" y="202" class="st1" width="2" height="6"/>
		<rect x="34" y="202" class="st1" width="2" height="6"/>
		<rect x="34" y="212" class="st1" width="2" height="6"/>
		<rect x="34" y="222" class="st1" width="2" height="6"/>
		<rect x="34" y="232" class="st1" width="2" height="6"/>
	</g>
</g>
</svg>
