<?xml version="1.0" encoding="utf-8"?>
<!-- Generator: Adobe Illustrator 19.1.0, SVG Export Plug-In . SVG Version: 6.00 Build 0)  -->
<!DOCTYPE svg PUBLIC "-//W3C//DTD SVG 1.0//EN" "http://www.w3.org/TR/2001/REC-SVG-20010904/DTD/svg10.dtd">
<svg version="1.0" id="Layer_1" xmlns="http://www.w3.org/2000/svg" xmlns:xlink="http://www.w3.org/1999/xlink" x="0px" y="0px"
	 viewBox="0 0 240 240" style="enable-background:new 0 0 240 240;" xml:space="preserve">
<style type="text/css">
	.st0{fill:#E5EAA4;}
	.st1{fill:#A8C4A2;}
	.st2{fill:#66245B;}
</style>
<g>
	<rect class="st0" width="240" height="240"/>
	<polygon class="st1" points="8,28 16,28 8,35 32,35 32,5 	"/>
	<polygon class="st1" points="48,28 56,28 48,35 72,35 72,5 	"/>
	<polygon class="st1" points="88,28 96,28 88,35 112,35 112,5 	"/>
	<polygon class="st1" points="128,28 136,28 128,35 152,35 152,5 	"/>
	<polygon class="st1" points="168,28 176,28 168,35 192,35 192,5 	"/>
	<polygon class="st1" points="208,28 216,28 208,35 232,35 232,5 	"/>
	<polygon class="st1" points="8,68 16,68 8,75 32,75 32,45 	"/>
	<polygon class="st2" points="48,68 56,68 48,75 72,75 72,45 	"/>
	<polygon class="st1" points="88,68 96,68 88,75 112,75 112,45 	"/>
	<polygon class="st1" points="128,68 136,68 128,75 152,75 152,45 	"/>
	<polygon class="st1" points="168,68 176,68 168,75 192,75 192,45 	"/>
	<polygon class="st1" points="208,68 216,68 208,75 232,75 232,45 	"/>
	<polygon class="st1" points="8,108 16,108 8,115 32,115 32,85 	"/>
	<polygon class="st1" points="48,108 56,108 48,115 72,115 72,85 	"/>
	<polygon class="st1" points="88,108 96,108 88,115 112,115 112,85 	"/>
	<polygon class="st1" points="128,108 136,108 128,115 152,115 152,85 	"/>
	<polygon class="st1" points="168,108 176,108 168,115 192,115 192,85 	"/>
	<polygon class="st1" points="208,108 216,108 208,115 232,115 232,85 	"/>
	<polygon class="st1" points="8,148 16,148 8,155 32,155 32,125 	"/>
	<polygon class="st1" points="48,148 56,148 48,155 72,155 72,125 	"/>
	<polygon class="st1" points="88,148 96,148 88,155 112,155 112,125 	"/>
	<polygon class="st1" points="128,148 136,148 128,155 152,155 152,125 	"/>
	<polygon class="st1" points="168,148 176,148 168,155 192,155 192,125 	"/>
	<polygon class="st1" points="208,148 216,148 208,155 232,155 232,125 	"/>
	<polygon class="st1" points="8,188 16,188 8,195 32,195 32,165 	"/>
	<polygon class="st1" points="48,188 56,188 48,195 72,195 72,165 	"/>
	<polygon class="st1" points="88,188 96,188 88,195 112,195 112,165 	"/>
	<polygon class="st1" points="128,188 136,188 128,195 152,195 152,165 	"/>
	<polygon class="st2" points="168,188 176,188 168,195 192,195 192,165 	"/>
	<polygon class="st1" points="208,188 216,188 208,195 232,195 232,165 	"/>
	<polygon class="st1" points="8,228 16,228 8,235 32,235 32,205 	"/>
	<polygon class="st1" points="48,228 56,228 48,235 72,235 72,205 	"/>
	<polygon class="st1" points="88,228 96,228 88,235 112,235 112,205 	"/>
	<polygon class="st1" points="128,228 136,228 128,235 152,235 152,205 	"/>
	<polygon class="st1" points="168,228 176,228 168,235 192,235 192,205 	"/>
	<polygon class="st1" points="208,228 216,228 208,235 232,235 232,205 	"/>
</g>
</svg>
