<?xml version="1.0" encoding="utf-8"?>
<!-- Generator: Adobe Illustrator 19.1.0, SVG Export Plug-In . SVG Version: 6.00 Build 0)  -->
<!DOCTYPE svg PUBLIC "-//W3C//DTD SVG 1.0//EN" "http://www.w3.org/TR/2001/REC-SVG-20010904/DTD/svg10.dtd">
<svg version="1.0" id="Layer_1" xmlns="http://www.w3.org/2000/svg" xmlns:xlink="http://www.w3.org/1999/xlink" x="0px" y="0px"
	 viewBox="0 0 240 240" style="enable-background:new 0 0 240 240;" xml:space="preserve">
<style type="text/css">
	.st0{fill:#E5EAA4;}
	.st1{fill:#A8C4A2;}
</style>
<rect class="st0" width="240" height="240"/>
<g>
	<g>
		<path class="st1" d="M6.5,4.2v2.3H4.2L6.5,4.2 M7,3L3,7h4V3L7,3z"/>
	</g>
	<g>
		<path class="st1" d="M16.5,4.2v2.3h-2.3L16.5,4.2 M17,3l-4,4h4V3L17,3z"/>
	</g>
	<g>
		<path class="st1" d="M26.5,4.2v2.3h-2.3L26.5,4.2 M27,3l-4,4h4V3L27,3z"/>
	</g>
	<g>
		<path class="st1" d="M36.5,4.2v2.3h-2.3L36.5,4.2 M37,3l-4,4h4V3L37,3z"/>
	</g>
	<g>
		<path class="st1" d="M6.5,14.2v2.3H4.2L6.5,14.2 M7,13l-4,4h4V13L7,13z"/>
	</g>
	<g>
		<path class="st1" d="M16.5,14.2v2.3h-2.3L16.5,14.2 M17,13l-4,4h4V13L17,13z"/>
	</g>
	<g>
		<path class="st1" d="M26.5,14.2v2.3h-2.3L26.5,14.2 M27,13l-4,4h4V13L27,13z"/>
	</g>
	<g>
		<path class="st1" d="M36.5,14.2v2.3h-2.3L36.5,14.2 M37,13l-4,4h4V13L37,13z"/>
	</g>
	<g>
		<path class="st1" d="M6.5,24.2v2.3H4.2L6.5,24.2 M7,23l-4,4h4V23L7,23z"/>
	</g>
	<g>
		<path class="st1" d="M16.5,24.2v2.3h-2.3L16.5,24.2 M17,23l-4,4h4V23L17,23z"/>
	</g>
	<g>
		<path class="st1" d="M26.5,24.2v2.3h-2.3L26.5,24.2 M27,23l-4,4h4V23L27,23z"/>
	</g>
	<g>
		<path class="st1" d="M36.5,24.2v2.3h-2.3L36.5,24.2 M37,23l-4,4h4V23L37,23z"/>
	</g>
	<g>
		<path class="st1" d="M6.5,34.2v2.3H4.2L6.5,34.2 M7,33l-4,4h4V33L7,33z"/>
	</g>
	<g>
		<path class="st1" d="M16.5,34.2v2.3h-2.3L16.5,34.2 M17,33l-4,4h4V33L17,33z"/>
	</g>
	<g>
		<path class="st1" d="M26.5,34.2v2.3h-2.3L26.5,34.2 M27,33l-4,4h4V33L27,33z"/>
	</g>
	<g>
		<path class="st1" d="M36.5,34.2v2.3h-2.3L36.5,34.2 M37,33l-4,4h4V33L37,33z"/>
	</g>
</g>
<g>
	<g>
		<path class="st1" d="M46.5,44.2v2.3h-2.3L46.5,44.2 M47,43l-4,4h4V43L47,43z"/>
	</g>
	<g>
		<path class="st1" d="M56.5,44.2v2.3h-2.3L56.5,44.2 M57,43l-4,4h4V43L57,43z"/>
	</g>
	<g>
		<path class="st1" d="M66.5,44.2v2.3h-2.3L66.5,44.2 M67,43l-4,4h4V43L67,43z"/>
	</g>
	<g>
		<path class="st1" d="M76.5,44.2v2.3h-2.3L76.5,44.2 M77,43l-4,4h4V43L77,43z"/>
	</g>
	<g>
		<path class="st1" d="M46.5,54.2v2.3h-2.3L46.5,54.2 M47,53l-4,4h4V53L47,53z"/>
	</g>
	<g>
		<path class="st1" d="M56.5,54.2v2.3h-2.3L56.5,54.2 M57,53l-4,4h4V53L57,53z"/>
	</g>
	<g>
		<path class="st1" d="M66.5,54.2v2.3h-2.3L66.5,54.2 M67,53l-4,4h4V53L67,53z"/>
	</g>
	<g>
		<path class="st1" d="M76.5,54.2v2.3h-2.3L76.5,54.2 M77,53l-4,4h4V53L77,53z"/>
	</g>
	<g>
		<path class="st1" d="M46.5,64.2v2.3h-2.3L46.5,64.2 M47,63l-4,4h4V63L47,63z"/>
	</g>
	<g>
		<path class="st1" d="M56.5,64.2v2.3h-2.3L56.5,64.2 M57,63l-4,4h4V63L57,63z"/>
	</g>
	<g>
		<path class="st1" d="M66.5,64.2v2.3h-2.3L66.5,64.2 M67,63l-4,4h4V63L67,63z"/>
	</g>
	<g>
		<path class="st1" d="M76.5,64.2v2.3h-2.3L76.5,64.2 M77,63l-4,4h4V63L77,63z"/>
	</g>
	<g>
		<path class="st1" d="M46.5,74.2v2.3h-2.3L46.5,74.2 M47,73l-4,4h4V73L47,73z"/>
	</g>
	<g>
		<path class="st1" d="M56.5,74.2v2.3h-2.3L56.5,74.2 M57,73l-4,4h4V73L57,73z"/>
	</g>
	<g>
		<path class="st1" d="M66.5,74.2v2.3h-2.3L66.5,74.2 M67,73l-4,4h4V73L67,73z"/>
	</g>
	<g>
		<path class="st1" d="M76.5,74.2v2.3h-2.3L76.5,74.2 M77,73l-4,4h4V73L77,73z"/>
	</g>
</g>
<g>
	<g>
		<path class="st1" d="M166.5,164.2v2.3h-2.3L166.5,164.2 M167,163l-4,4h4V163L167,163z"/>
	</g>
	<g>
		<path class="st1" d="M176.5,164.2v2.3h-2.3L176.5,164.2 M177,163l-4,4h4V163L177,163z"/>
	</g>
	<g>
		<path class="st1" d="M186.5,164.2v2.3h-2.3L186.5,164.2 M187,163l-4,4h4V163L187,163z"/>
	</g>
	<g>
		<path class="st1" d="M196.5,164.2v2.3h-2.3L196.5,164.2 M197,163l-4,4h4V163L197,163z"/>
	</g>
	<g>
		<path class="st1" d="M166.5,174.2v2.3h-2.3L166.5,174.2 M167,173l-4,4h4V173L167,173z"/>
	</g>
	<g>
		<path class="st1" d="M176.5,174.2v2.3h-2.3L176.5,174.2 M177,173l-4,4h4V173L177,173z"/>
	</g>
	<g>
		<path class="st1" d="M186.5,174.2v2.3h-2.3L186.5,174.2 M187,173l-4,4h4V173L187,173z"/>
	</g>
	<g>
		<path class="st1" d="M196.5,174.2v2.3h-2.3L196.5,174.2 M197,173l-4,4h4V173L197,173z"/>
	</g>
	<g>
		<path class="st1" d="M166.5,184.2v2.3h-2.3L166.5,184.2 M167,183l-4,4h4V183L167,183z"/>
	</g>
	<g>
		<path class="st1" d="M176.5,184.2v2.3h-2.3L176.5,184.2 M177,183l-4,4h4V183L177,183z"/>
	</g>
	<g>
		<path class="st1" d="M186.5,184.2v2.3h-2.3L186.5,184.2 M187,183l-4,4h4V183L187,183z"/>
	</g>
	<g>
		<path class="st1" d="M196.5,184.2v2.3h-2.3L196.5,184.2 M197,183l-4,4h4V183L197,183z"/>
	</g>
	<g>
		<path class="st1" d="M166.5,194.2v2.3h-2.3L166.5,194.2 M167,193l-4,4h4V193L167,193z"/>
	</g>
	<g>
		<path class="st1" d="M176.5,194.2v2.3h-2.3L176.5,194.2 M177,193l-4,4h4V193L177,193z"/>
	</g>
	<g>
		<path class="st1" d="M186.5,194.2v2.3h-2.3L186.5,194.2 M187,193l-4,4h4V193L187,193z"/>
	</g>
	<g>
		<path class="st1" d="M196.5,194.2v2.3h-2.3L196.5,194.2 M197,193l-4,4h4V193L197,193z"/>
	</g>
</g>
<g>
	<g>
		<path class="st1" d="M46.5,4.2v2.3h-2.3L46.5,4.2 M47,3l-4,4h4V3L47,3z"/>
	</g>
	<g>
		<path class="st1" d="M56.5,4.2v2.3h-2.3L56.5,4.2 M57,3l-4,4h4V3L57,3z"/>
	</g>
	<g>
		<path class="st1" d="M66.5,4.2v2.3h-2.3L66.5,4.2 M67,3l-4,4h4V3L67,3z"/>
	</g>
	<g>
		<path class="st1" d="M76.5,4.2v2.3h-2.3L76.5,4.2 M77,3l-4,4h4V3L77,3z"/>
	</g>
	<g>
		<path class="st1" d="M46.5,14.2v2.3h-2.3L46.5,14.2 M47,13l-4,4h4V13L47,13z"/>
	</g>
	<g>
		<path class="st1" d="M56.5,14.2v2.3h-2.3L56.5,14.2 M57,13l-4,4h4V13L57,13z"/>
	</g>
	<g>
		<path class="st1" d="M66.5,14.2v2.3h-2.3L66.5,14.2 M67,13l-4,4h4V13L67,13z"/>
	</g>
	<g>
		<path class="st1" d="M76.5,14.2v2.3h-2.3L76.5,14.2 M77,13l-4,4h4V13L77,13z"/>
	</g>
	<g>
		<path class="st1" d="M46.5,24.2v2.3h-2.3L46.5,24.2 M47,23l-4,4h4V23L47,23z"/>
	</g>
	<g>
		<path class="st1" d="M56.5,24.2v2.3h-2.3L56.5,24.2 M57,23l-4,4h4V23L57,23z"/>
	</g>
	<g>
		<path class="st1" d="M66.5,24.2v2.3h-2.3L66.5,24.2 M67,23l-4,4h4V23L67,23z"/>
	</g>
	<g>
		<path class="st1" d="M76.5,24.2v2.3h-2.3L76.5,24.2 M77,23l-4,4h4V23L77,23z"/>
	</g>
	<g>
		<path class="st1" d="M46.5,34.2v2.3h-2.3L46.5,34.2 M47,33l-4,4h4V33L47,33z"/>
	</g>
	<g>
		<path class="st1" d="M56.5,34.2v2.3h-2.3L56.5,34.2 M57,33l-4,4h4V33L57,33z"/>
	</g>
	<g>
		<path class="st1" d="M66.5,34.2v2.3h-2.3L66.5,34.2 M67,33l-4,4h4V33L67,33z"/>
	</g>
	<g>
		<path class="st1" d="M76.5,34.2v2.3h-2.3L76.5,34.2 M77,33l-4,4h4V33L77,33z"/>
	</g>
</g>
<g>
	<g>
		<path class="st1" d="M86.5,4.2v2.3h-2.3L86.5,4.2 M87,3l-4,4h4V3L87,3z"/>
	</g>
	<g>
		<path class="st1" d="M96.5,4.2v2.3h-2.3L96.5,4.2 M97,3l-4,4h4V3L97,3z"/>
	</g>
	<g>
		<path class="st1" d="M106.5,4.2v2.3h-2.3L106.5,4.2 M107,3l-4,4h4V3L107,3z"/>
	</g>
	<g>
		<path class="st1" d="M116.5,4.2v2.3h-2.3L116.5,4.2 M117,3l-4,4h4V3L117,3z"/>
	</g>
	<g>
		<path class="st1" d="M86.5,14.2v2.3h-2.3L86.5,14.2 M87,13l-4,4h4V13L87,13z"/>
	</g>
	<g>
		<path class="st1" d="M96.5,14.2v2.3h-2.3L96.5,14.2 M97,13l-4,4h4V13L97,13z"/>
	</g>
	<g>
		<path class="st1" d="M106.5,14.2v2.3h-2.3L106.5,14.2 M107,13l-4,4h4V13L107,13z"/>
	</g>
	<g>
		<path class="st1" d="M116.5,14.2v2.3h-2.3L116.5,14.2 M117,13l-4,4h4V13L117,13z"/>
	</g>
	<g>
		<path class="st1" d="M86.5,24.2v2.3h-2.3L86.5,24.2 M87,23l-4,4h4V23L87,23z"/>
	</g>
	<g>
		<path class="st1" d="M96.5,24.2v2.3h-2.3L96.5,24.2 M97,23l-4,4h4V23L97,23z"/>
	</g>
	<g>
		<path class="st1" d="M106.5,24.2v2.3h-2.3L106.5,24.2 M107,23l-4,4h4V23L107,23z"/>
	</g>
	<g>
		<path class="st1" d="M116.5,24.2v2.3h-2.3L116.5,24.2 M117,23l-4,4h4V23L117,23z"/>
	</g>
	<g>
		<path class="st1" d="M86.5,34.2v2.3h-2.3L86.5,34.2 M87,33l-4,4h4V33L87,33z"/>
	</g>
	<g>
		<path class="st1" d="M96.5,34.2v2.3h-2.3L96.5,34.2 M97,33l-4,4h4V33L97,33z"/>
	</g>
	<g>
		<path class="st1" d="M106.5,34.2v2.3h-2.3L106.5,34.2 M107,33l-4,4h4V33L107,33z"/>
	</g>
	<g>
		<path class="st1" d="M116.5,34.2v2.3h-2.3L116.5,34.2 M117,33l-4,4h4V33L117,33z"/>
	</g>
</g>
<g>
	<g>
		<path class="st1" d="M126.5,4.2v2.3h-2.3L126.5,4.2 M127,3l-4,4h4V3L127,3z"/>
	</g>
	<g>
		<path class="st1" d="M136.5,4.2v2.3h-2.3L136.5,4.2 M137,3l-4,4h4V3L137,3z"/>
	</g>
	<g>
		<path class="st1" d="M146.5,4.2v2.3h-2.3L146.5,4.2 M147,3l-4,4h4V3L147,3z"/>
	</g>
	<g>
		<path class="st1" d="M156.5,4.2v2.3h-2.3L156.5,4.2 M157,3l-4,4h4V3L157,3z"/>
	</g>
	<g>
		<path class="st1" d="M126.5,14.2v2.3h-2.3L126.5,14.2 M127,13l-4,4h4V13L127,13z"/>
	</g>
	<g>
		<path class="st1" d="M136.5,14.2v2.3h-2.3L136.5,14.2 M137,13l-4,4h4V13L137,13z"/>
	</g>
	<g>
		<path class="st1" d="M146.5,14.2v2.3h-2.3L146.5,14.2 M147,13l-4,4h4V13L147,13z"/>
	</g>
	<g>
		<path class="st1" d="M156.5,14.2v2.3h-2.3L156.5,14.2 M157,13l-4,4h4V13L157,13z"/>
	</g>
	<g>
		<path class="st1" d="M126.5,24.2v2.3h-2.3L126.5,24.2 M127,23l-4,4h4V23L127,23z"/>
	</g>
	<g>
		<path class="st1" d="M136.5,24.2v2.3h-2.3L136.5,24.2 M137,23l-4,4h4V23L137,23z"/>
	</g>
	<g>
		<path class="st1" d="M146.5,24.2v2.3h-2.3L146.5,24.2 M147,23l-4,4h4V23L147,23z"/>
	</g>
	<g>
		<path class="st1" d="M156.5,24.2v2.3h-2.3L156.5,24.2 M157,23l-4,4h4V23L157,23z"/>
	</g>
	<g>
		<path class="st1" d="M126.5,34.2v2.3h-2.3L126.5,34.2 M127,33l-4,4h4V33L127,33z"/>
	</g>
	<g>
		<path class="st1" d="M136.5,34.2v2.3h-2.3L136.5,34.2 M137,33l-4,4h4V33L137,33z"/>
	</g>
	<g>
		<path class="st1" d="M146.5,34.2v2.3h-2.3L146.5,34.2 M147,33l-4,4h4V33L147,33z"/>
	</g>
	<g>
		<path class="st1" d="M156.5,34.2v2.3h-2.3L156.5,34.2 M157,33l-4,4h4V33L157,33z"/>
	</g>
</g>
<g>
	<g>
		<path class="st1" d="M166.5,4.2v2.3h-2.3L166.5,4.2 M167,3l-4,4h4V3L167,3z"/>
	</g>
	<g>
		<path class="st1" d="M176.5,4.2v2.3h-2.3L176.5,4.2 M177,3l-4,4h4V3L177,3z"/>
	</g>
	<g>
		<path class="st1" d="M186.5,4.2v2.3h-2.3L186.5,4.2 M187,3l-4,4h4V3L187,3z"/>
	</g>
	<g>
		<path class="st1" d="M196.5,4.2v2.3h-2.3L196.5,4.2 M197,3l-4,4h4V3L197,3z"/>
	</g>
	<g>
		<path class="st1" d="M166.5,14.2v2.3h-2.3L166.5,14.2 M167,13l-4,4h4V13L167,13z"/>
	</g>
	<g>
		<path class="st1" d="M176.5,14.2v2.3h-2.3L176.5,14.2 M177,13l-4,4h4V13L177,13z"/>
	</g>
	<g>
		<path class="st1" d="M186.5,14.2v2.3h-2.3L186.5,14.2 M187,13l-4,4h4V13L187,13z"/>
	</g>
	<g>
		<path class="st1" d="M196.5,14.2v2.3h-2.3L196.5,14.2 M197,13l-4,4h4V13L197,13z"/>
	</g>
	<g>
		<path class="st1" d="M166.5,24.2v2.3h-2.3L166.5,24.2 M167,23l-4,4h4V23L167,23z"/>
	</g>
	<g>
		<path class="st1" d="M176.5,24.2v2.3h-2.3L176.5,24.2 M177,23l-4,4h4V23L177,23z"/>
	</g>
	<g>
		<path class="st1" d="M186.5,24.2v2.3h-2.3L186.5,24.2 M187,23l-4,4h4V23L187,23z"/>
	</g>
	<g>
		<path class="st1" d="M196.5,24.2v2.3h-2.3L196.5,24.2 M197,23l-4,4h4V23L197,23z"/>
	</g>
	<g>
		<path class="st1" d="M166.5,34.2v2.3h-2.3L166.5,34.2 M167,33l-4,4h4V33L167,33z"/>
	</g>
	<g>
		<path class="st1" d="M176.5,34.2v2.3h-2.3L176.5,34.2 M177,33l-4,4h4V33L177,33z"/>
	</g>
	<g>
		<path class="st1" d="M186.5,34.2v2.3h-2.3L186.5,34.2 M187,33l-4,4h4V33L187,33z"/>
	</g>
	<g>
		<path class="st1" d="M196.5,34.2v2.3h-2.3L196.5,34.2 M197,33l-4,4h4V33L197,33z"/>
	</g>
</g>
<g>
	<g>
		<path class="st1" d="M206.5,4.2v2.3h-2.3L206.5,4.2 M207,3l-4,4h4V3L207,3z"/>
	</g>
	<g>
		<path class="st1" d="M216.5,4.2v2.3h-2.3L216.5,4.2 M217,3l-4,4h4V3L217,3z"/>
	</g>
	<g>
		<path class="st1" d="M226.5,4.2v2.3h-2.3L226.5,4.2 M227,3l-4,4h4V3L227,3z"/>
	</g>
	<g>
		<path class="st1" d="M236.5,4.2v2.3h-2.3L236.5,4.2 M237,3l-4,4h4V3L237,3z"/>
	</g>
	<g>
		<path class="st1" d="M206.5,14.2v2.3h-2.3L206.5,14.2 M207,13l-4,4h4V13L207,13z"/>
	</g>
	<g>
		<path class="st1" d="M216.5,14.2v2.3h-2.3L216.5,14.2 M217,13l-4,4h4V13L217,13z"/>
	</g>
	<g>
		<path class="st1" d="M226.5,14.2v2.3h-2.3L226.5,14.2 M227,13l-4,4h4V13L227,13z"/>
	</g>
	<g>
		<path class="st1" d="M236.5,14.2v2.3h-2.3L236.5,14.2 M237,13l-4,4h4V13L237,13z"/>
	</g>
	<g>
		<path class="st1" d="M206.5,24.2v2.3h-2.3L206.5,24.2 M207,23l-4,4h4V23L207,23z"/>
	</g>
	<g>
		<path class="st1" d="M216.5,24.2v2.3h-2.3L216.5,24.2 M217,23l-4,4h4V23L217,23z"/>
	</g>
	<g>
		<path class="st1" d="M226.5,24.2v2.3h-2.3L226.5,24.2 M227,23l-4,4h4V23L227,23z"/>
	</g>
	<g>
		<path class="st1" d="M236.5,24.2v2.3h-2.3L236.5,24.2 M237,23l-4,4h4V23L237,23z"/>
	</g>
	<g>
		<path class="st1" d="M206.5,34.2v2.3h-2.3L206.5,34.2 M207,33l-4,4h4V33L207,33z"/>
	</g>
	<g>
		<path class="st1" d="M216.5,34.2v2.3h-2.3L216.5,34.2 M217,33l-4,4h4V33L217,33z"/>
	</g>
	<g>
		<path class="st1" d="M226.5,34.2v2.3h-2.3L226.5,34.2 M227,33l-4,4h4V33L227,33z"/>
	</g>
	<g>
		<path class="st1" d="M236.5,34.2v2.3h-2.3L236.5,34.2 M237,33l-4,4h4V33L237,33z"/>
	</g>
</g>
<g>
	<g>
		<path class="st1" d="M6.5,44.2v2.3H4.2L6.5,44.2 M7,43l-4,4h4V43L7,43z"/>
	</g>
	<g>
		<path class="st1" d="M16.5,44.2v2.3h-2.3L16.5,44.2 M17,43l-4,4h4V43L17,43z"/>
	</g>
	<g>
		<path class="st1" d="M26.5,44.2v2.3h-2.3L26.5,44.2 M27,43l-4,4h4V43L27,43z"/>
	</g>
	<g>
		<path class="st1" d="M36.5,44.2v2.3h-2.3L36.5,44.2 M37,43l-4,4h4V43L37,43z"/>
	</g>
	<g>
		<path class="st1" d="M6.5,54.2v2.3H4.2L6.5,54.2 M7,53l-4,4h4V53L7,53z"/>
	</g>
	<g>
		<path class="st1" d="M16.5,54.2v2.3h-2.3L16.5,54.2 M17,53l-4,4h4V53L17,53z"/>
	</g>
	<g>
		<path class="st1" d="M26.5,54.2v2.3h-2.3L26.5,54.2 M27,53l-4,4h4V53L27,53z"/>
	</g>
	<g>
		<path class="st1" d="M36.5,54.2v2.3h-2.3L36.5,54.2 M37,53l-4,4h4V53L37,53z"/>
	</g>
	<g>
		<path class="st1" d="M6.5,64.2v2.3H4.2L6.5,64.2 M7,63l-4,4h4V63L7,63z"/>
	</g>
	<g>
		<path class="st1" d="M16.5,64.2v2.3h-2.3L16.5,64.2 M17,63l-4,4h4V63L17,63z"/>
	</g>
	<g>
		<path class="st1" d="M26.5,64.2v2.3h-2.3L26.5,64.2 M27,63l-4,4h4V63L27,63z"/>
	</g>
	<g>
		<path class="st1" d="M36.5,64.2v2.3h-2.3L36.5,64.2 M37,63l-4,4h4V63L37,63z"/>
	</g>
	<g>
		<path class="st1" d="M6.5,74.2v2.3H4.2L6.5,74.2 M7,73l-4,4h4V73L7,73z"/>
	</g>
	<g>
		<path class="st1" d="M16.5,74.2v2.3h-2.3L16.5,74.2 M17,73l-4,4h4V73L17,73z"/>
	</g>
	<g>
		<path class="st1" d="M26.5,74.2v2.3h-2.3L26.5,74.2 M27,73l-4,4h4V73L27,73z"/>
	</g>
	<g>
		<path class="st1" d="M36.5,74.2v2.3h-2.3L36.5,74.2 M37,73l-4,4h4V73L37,73z"/>
	</g>
</g>
<g>
	<g>
		<path class="st1" d="M86.5,44.2v2.3h-2.3L86.5,44.2 M87,43l-4,4h4V43L87,43z"/>
	</g>
	<g>
		<path class="st1" d="M96.5,44.2v2.3h-2.3L96.5,44.2 M97,43l-4,4h4V43L97,43z"/>
	</g>
	<g>
		<path class="st1" d="M106.5,44.2v2.3h-2.3L106.5,44.2 M107,43l-4,4h4V43L107,43z"/>
	</g>
	<g>
		<path class="st1" d="M116.5,44.2v2.3h-2.3L116.5,44.2 M117,43l-4,4h4V43L117,43z"/>
	</g>
	<g>
		<path class="st1" d="M86.5,54.2v2.3h-2.3L86.5,54.2 M87,53l-4,4h4V53L87,53z"/>
	</g>
	<g>
		<path class="st1" d="M96.5,54.2v2.3h-2.3L96.5,54.2 M97,53l-4,4h4V53L97,53z"/>
	</g>
	<g>
		<path class="st1" d="M106.5,54.2v2.3h-2.3L106.5,54.2 M107,53l-4,4h4V53L107,53z"/>
	</g>
	<g>
		<path class="st1" d="M116.5,54.2v2.3h-2.3L116.5,54.2 M117,53l-4,4h4V53L117,53z"/>
	</g>
	<g>
		<path class="st1" d="M86.5,64.2v2.3h-2.3L86.5,64.2 M87,63l-4,4h4V63L87,63z"/>
	</g>
	<g>
		<path class="st1" d="M96.5,64.2v2.3h-2.3L96.5,64.2 M97,63l-4,4h4V63L97,63z"/>
	</g>
	<g>
		<path class="st1" d="M106.5,64.2v2.3h-2.3L106.5,64.2 M107,63l-4,4h4V63L107,63z"/>
	</g>
	<g>
		<path class="st1" d="M116.5,64.2v2.3h-2.3L116.5,64.2 M117,63l-4,4h4V63L117,63z"/>
	</g>
	<g>
		<path class="st1" d="M86.5,74.2v2.3h-2.3L86.5,74.2 M87,73l-4,4h4V73L87,73z"/>
	</g>
	<g>
		<path class="st1" d="M96.5,74.2v2.3h-2.3L96.5,74.2 M97,73l-4,4h4V73L97,73z"/>
	</g>
	<g>
		<path class="st1" d="M106.5,74.2v2.3h-2.3L106.5,74.2 M107,73l-4,4h4V73L107,73z"/>
	</g>
	<g>
		<path class="st1" d="M116.5,74.2v2.3h-2.3L116.5,74.2 M117,73l-4,4h4V73L117,73z"/>
	</g>
</g>
<g>
	<g>
		<path class="st1" d="M126.5,44.2v2.3h-2.3L126.5,44.2 M127,43l-4,4h4V43L127,43z"/>
	</g>
	<g>
		<path class="st1" d="M136.5,44.2v2.3h-2.3L136.5,44.2 M137,43l-4,4h4V43L137,43z"/>
	</g>
	<g>
		<path class="st1" d="M146.5,44.2v2.3h-2.3L146.5,44.2 M147,43l-4,4h4V43L147,43z"/>
	</g>
	<g>
		<path class="st1" d="M156.5,44.2v2.3h-2.3L156.5,44.2 M157,43l-4,4h4V43L157,43z"/>
	</g>
	<g>
		<path class="st1" d="M126.5,54.2v2.3h-2.3L126.5,54.2 M127,53l-4,4h4V53L127,53z"/>
	</g>
	<g>
		<path class="st1" d="M136.5,54.2v2.3h-2.3L136.5,54.2 M137,53l-4,4h4V53L137,53z"/>
	</g>
	<g>
		<path class="st1" d="M146.5,54.2v2.3h-2.3L146.5,54.2 M147,53l-4,4h4V53L147,53z"/>
	</g>
	<g>
		<path class="st1" d="M156.5,54.2v2.3h-2.3L156.5,54.2 M157,53l-4,4h4V53L157,53z"/>
	</g>
	<g>
		<path class="st1" d="M126.5,64.2v2.3h-2.3L126.5,64.2 M127,63l-4,4h4V63L127,63z"/>
	</g>
	<g>
		<path class="st1" d="M136.5,64.2v2.3h-2.3L136.5,64.2 M137,63l-4,4h4V63L137,63z"/>
	</g>
	<g>
		<path class="st1" d="M146.5,64.2v2.3h-2.3L146.5,64.2 M147,63l-4,4h4V63L147,63z"/>
	</g>
	<g>
		<path class="st1" d="M156.5,64.2v2.3h-2.3L156.5,64.2 M157,63l-4,4h4V63L157,63z"/>
	</g>
	<g>
		<path class="st1" d="M126.5,74.2v2.3h-2.3L126.5,74.2 M127,73l-4,4h4V73L127,73z"/>
	</g>
	<g>
		<path class="st1" d="M136.5,74.2v2.3h-2.3L136.5,74.2 M137,73l-4,4h4V73L137,73z"/>
	</g>
	<g>
		<path class="st1" d="M146.5,74.2v2.3h-2.3L146.5,74.2 M147,73l-4,4h4V73L147,73z"/>
	</g>
	<g>
		<path class="st1" d="M156.5,74.2v2.3h-2.3L156.5,74.2 M157,73l-4,4h4V73L157,73z"/>
	</g>
</g>
<g>
	<g>
		<path class="st1" d="M166.5,44.2v2.3h-2.3L166.5,44.2 M167,43l-4,4h4V43L167,43z"/>
	</g>
	<g>
		<path class="st1" d="M176.5,44.2v2.3h-2.3L176.5,44.2 M177,43l-4,4h4V43L177,43z"/>
	</g>
	<g>
		<path class="st1" d="M186.5,44.2v2.3h-2.3L186.5,44.2 M187,43l-4,4h4V43L187,43z"/>
	</g>
	<g>
		<path class="st1" d="M196.5,44.2v2.3h-2.3L196.5,44.2 M197,43l-4,4h4V43L197,43z"/>
	</g>
	<g>
		<path class="st1" d="M166.5,54.2v2.3h-2.3L166.5,54.2 M167,53l-4,4h4V53L167,53z"/>
	</g>
	<g>
		<path class="st1" d="M176.5,54.2v2.3h-2.3L176.5,54.2 M177,53l-4,4h4V53L177,53z"/>
	</g>
	<g>
		<path class="st1" d="M186.5,54.2v2.3h-2.3L186.5,54.2 M187,53l-4,4h4V53L187,53z"/>
	</g>
	<g>
		<path class="st1" d="M196.5,54.2v2.3h-2.3L196.5,54.2 M197,53l-4,4h4V53L197,53z"/>
	</g>
	<g>
		<path class="st1" d="M166.5,64.2v2.3h-2.3L166.5,64.2 M167,63l-4,4h4V63L167,63z"/>
	</g>
	<g>
		<path class="st1" d="M176.5,64.2v2.3h-2.3L176.5,64.2 M177,63l-4,4h4V63L177,63z"/>
	</g>
	<g>
		<path class="st1" d="M186.5,64.2v2.3h-2.3L186.5,64.2 M187,63l-4,4h4V63L187,63z"/>
	</g>
	<g>
		<path class="st1" d="M196.5,64.2v2.3h-2.3L196.5,64.2 M197,63l-4,4h4V63L197,63z"/>
	</g>
	<g>
		<path class="st1" d="M166.5,74.2v2.3h-2.3L166.5,74.2 M167,73l-4,4h4V73L167,73z"/>
	</g>
	<g>
		<path class="st1" d="M176.5,74.2v2.3h-2.3L176.5,74.2 M177,73l-4,4h4V73L177,73z"/>
	</g>
	<g>
		<path class="st1" d="M186.5,74.2v2.3h-2.3L186.5,74.2 M187,73l-4,4h4V73L187,73z"/>
	</g>
	<g>
		<path class="st1" d="M196.5,74.2v2.3h-2.3L196.5,74.2 M197,73l-4,4h4V73L197,73z"/>
	</g>
</g>
<g>
	<g>
		<path class="st1" d="M206.5,44.2v2.3h-2.3L206.5,44.2 M207,43l-4,4h4V43L207,43z"/>
	</g>
	<g>
		<path class="st1" d="M216.5,44.2v2.3h-2.3L216.5,44.2 M217,43l-4,4h4V43L217,43z"/>
	</g>
	<g>
		<path class="st1" d="M226.5,44.2v2.3h-2.3L226.5,44.2 M227,43l-4,4h4V43L227,43z"/>
	</g>
	<g>
		<path class="st1" d="M236.5,44.2v2.3h-2.3L236.5,44.2 M237,43l-4,4h4V43L237,43z"/>
	</g>
	<g>
		<path class="st1" d="M206.5,54.2v2.3h-2.3L206.5,54.2 M207,53l-4,4h4V53L207,53z"/>
	</g>
	<g>
		<path class="st1" d="M216.5,54.2v2.3h-2.3L216.5,54.2 M217,53l-4,4h4V53L217,53z"/>
	</g>
	<g>
		<path class="st1" d="M226.5,54.2v2.3h-2.3L226.5,54.2 M227,53l-4,4h4V53L227,53z"/>
	</g>
	<g>
		<path class="st1" d="M236.5,54.2v2.3h-2.3L236.5,54.2 M237,53l-4,4h4V53L237,53z"/>
	</g>
	<g>
		<path class="st1" d="M206.5,64.2v2.3h-2.3L206.5,64.2 M207,63l-4,4h4V63L207,63z"/>
	</g>
	<g>
		<path class="st1" d="M216.5,64.2v2.3h-2.3L216.5,64.2 M217,63l-4,4h4V63L217,63z"/>
	</g>
	<g>
		<path class="st1" d="M226.5,64.2v2.3h-2.3L226.5,64.2 M227,63l-4,4h4V63L227,63z"/>
	</g>
	<g>
		<path class="st1" d="M236.5,64.2v2.3h-2.3L236.5,64.2 M237,63l-4,4h4V63L237,63z"/>
	</g>
	<g>
		<path class="st1" d="M206.5,74.2v2.3h-2.3L206.5,74.2 M207,73l-4,4h4V73L207,73z"/>
	</g>
	<g>
		<path class="st1" d="M216.5,74.2v2.3h-2.3L216.5,74.2 M217,73l-4,4h4V73L217,73z"/>
	</g>
	<g>
		<path class="st1" d="M226.5,74.2v2.3h-2.3L226.5,74.2 M227,73l-4,4h4V73L227,73z"/>
	</g>
	<g>
		<path class="st1" d="M236.5,74.2v2.3h-2.3L236.5,74.2 M237,73l-4,4h4V73L237,73z"/>
	</g>
</g>
<g>
	<g>
		<g>
			<path class="st1" d="M6.5,84.2v2.3H4.2L6.5,84.2 M7,83l-4,4h4V83L7,83z"/>
		</g>
		<g>
			<path class="st1" d="M16.5,84.2v2.3h-2.3L16.5,84.2 M17,83l-4,4h4V83L17,83z"/>
		</g>
		<g>
			<path class="st1" d="M26.5,84.2v2.3h-2.3L26.5,84.2 M27,83l-4,4h4V83L27,83z"/>
		</g>
		<g>
			<path class="st1" d="M36.5,84.2v2.3h-2.3L36.5,84.2 M37,83l-4,4h4V83L37,83z"/>
		</g>
		<g>
			<path class="st1" d="M6.5,94.2v2.3H4.2L6.5,94.2 M7,93l-4,4h4V93L7,93z"/>
		</g>
		<g>
			<path class="st1" d="M16.5,94.2v2.3h-2.3L16.5,94.2 M17,93l-4,4h4V93L17,93z"/>
		</g>
		<g>
			<path class="st1" d="M26.5,94.2v2.3h-2.3L26.5,94.2 M27,93l-4,4h4V93L27,93z"/>
		</g>
		<g>
			<path class="st1" d="M36.5,94.2v2.3h-2.3L36.5,94.2 M37,93l-4,4h4V93L37,93z"/>
		</g>
		<g>
			<path class="st1" d="M6.5,104.2v2.3H4.2L6.5,104.2 M7,103l-4,4h4V103L7,103z"/>
		</g>
		<g>
			<path class="st1" d="M16.5,104.2v2.3h-2.3L16.5,104.2 M17,103l-4,4h4V103L17,103z"/>
		</g>
		<g>
			<path class="st1" d="M26.5,104.2v2.3h-2.3L26.5,104.2 M27,103l-4,4h4V103L27,103z"/>
		</g>
		<g>
			<path class="st1" d="M36.5,104.2v2.3h-2.3L36.5,104.2 M37,103l-4,4h4V103L37,103z"/>
		</g>
		<g>
			<path class="st1" d="M6.5,114.2v2.3H4.2L6.5,114.2 M7,113l-4,4h4V113L7,113z"/>
		</g>
		<g>
			<path class="st1" d="M16.5,114.2v2.3h-2.3L16.5,114.2 M17,113l-4,4h4V113L17,113z"/>
		</g>
		<g>
			<path class="st1" d="M26.5,114.2v2.3h-2.3L26.5,114.2 M27,113l-4,4h4V113L27,113z"/>
		</g>
		<g>
			<path class="st1" d="M36.5,114.2v2.3h-2.3L36.5,114.2 M37,113l-4,4h4V113L37,113z"/>
		</g>
	</g>
	<g>
		<g>
			<path class="st1" d="M46.5,84.2v2.3h-2.3L46.5,84.2 M47,83l-4,4h4V83L47,83z"/>
		</g>
		<g>
			<path class="st1" d="M56.5,84.2v2.3h-2.3L56.5,84.2 M57,83l-4,4h4V83L57,83z"/>
		</g>
		<g>
			<path class="st1" d="M66.5,84.2v2.3h-2.3L66.5,84.2 M67,83l-4,4h4V83L67,83z"/>
		</g>
		<g>
			<path class="st1" d="M76.5,84.2v2.3h-2.3L76.5,84.2 M77,83l-4,4h4V83L77,83z"/>
		</g>
		<g>
			<path class="st1" d="M46.5,94.2v2.3h-2.3L46.5,94.2 M47,93l-4,4h4V93L47,93z"/>
		</g>
		<g>
			<path class="st1" d="M56.5,94.2v2.3h-2.3L56.5,94.2 M57,93l-4,4h4V93L57,93z"/>
		</g>
		<g>
			<path class="st1" d="M66.5,94.2v2.3h-2.3L66.5,94.2 M67,93l-4,4h4V93L67,93z"/>
		</g>
		<g>
			<path class="st1" d="M76.5,94.2v2.3h-2.3L76.5,94.2 M77,93l-4,4h4V93L77,93z"/>
		</g>
		<g>
			<path class="st1" d="M46.5,104.2v2.3h-2.3L46.5,104.2 M47,103l-4,4h4V103L47,103z"/>
		</g>
		<g>
			<path class="st1" d="M56.5,104.2v2.3h-2.3L56.5,104.2 M57,103l-4,4h4V103L57,103z"/>
		</g>
		<g>
			<path class="st1" d="M66.5,104.2v2.3h-2.3L66.5,104.2 M67,103l-4,4h4V103L67,103z"/>
		</g>
		<g>
			<path class="st1" d="M76.5,104.2v2.3h-2.3L76.5,104.2 M77,103l-4,4h4V103L77,103z"/>
		</g>
		<g>
			<path class="st1" d="M46.5,114.2v2.3h-2.3L46.5,114.2 M47,113l-4,4h4V113L47,113z"/>
		</g>
		<g>
			<path class="st1" d="M56.5,114.2v2.3h-2.3L56.5,114.2 M57,113l-4,4h4V113L57,113z"/>
		</g>
		<g>
			<path class="st1" d="M66.5,114.2v2.3h-2.3L66.5,114.2 M67,113l-4,4h4V113L67,113z"/>
		</g>
		<g>
			<path class="st1" d="M76.5,114.2v2.3h-2.3L76.5,114.2 M77,113l-4,4h4V113L77,113z"/>
		</g>
	</g>
	<g>
		<g>
			<path class="st1" d="M86.5,84.2v2.3h-2.3L86.5,84.2 M87,83l-4,4h4V83L87,83z"/>
		</g>
		<g>
			<path class="st1" d="M96.5,84.2v2.3h-2.3L96.5,84.2 M97,83l-4,4h4V83L97,83z"/>
		</g>
		<g>
			<path class="st1" d="M106.5,84.2v2.3h-2.3L106.5,84.2 M107,83l-4,4h4V83L107,83z"/>
		</g>
		<g>
			<path class="st1" d="M116.5,84.2v2.3h-2.3L116.5,84.2 M117,83l-4,4h4V83L117,83z"/>
		</g>
		<g>
			<path class="st1" d="M86.5,94.2v2.3h-2.3L86.5,94.2 M87,93l-4,4h4V93L87,93z"/>
		</g>
		<g>
			<path class="st1" d="M96.5,94.2v2.3h-2.3L96.5,94.2 M97,93l-4,4h4V93L97,93z"/>
		</g>
		<g>
			<path class="st1" d="M106.5,94.2v2.3h-2.3L106.5,94.2 M107,93l-4,4h4V93L107,93z"/>
		</g>
		<g>
			<path class="st1" d="M116.5,94.2v2.3h-2.3L116.5,94.2 M117,93l-4,4h4V93L117,93z"/>
		</g>
		<g>
			<path class="st1" d="M86.5,104.2v2.3h-2.3L86.5,104.2 M87,103l-4,4h4V103L87,103z"/>
		</g>
		<g>
			<path class="st1" d="M96.5,104.2v2.3h-2.3L96.5,104.2 M97,103l-4,4h4V103L97,103z"/>
		</g>
		<g>
			<path class="st1" d="M106.5,104.2v2.3h-2.3L106.5,104.2 M107,103l-4,4h4V103L107,103z"/>
		</g>
		<g>
			<path class="st1" d="M116.5,104.2v2.3h-2.3L116.5,104.2 M117,103l-4,4h4V103L117,103z"/>
		</g>
		<g>
			<path class="st1" d="M86.5,114.2v2.3h-2.3L86.5,114.2 M87,113l-4,4h4V113L87,113z"/>
		</g>
		<g>
			<path class="st1" d="M96.5,114.2v2.3h-2.3L96.5,114.2 M97,113l-4,4h4V113L97,113z"/>
		</g>
		<g>
			<path class="st1" d="M106.5,114.2v2.3h-2.3L106.5,114.2 M107,113l-4,4h4V113L107,113z"/>
		</g>
		<g>
			<path class="st1" d="M116.5,114.2v2.3h-2.3L116.5,114.2 M117,113l-4,4h4V113L117,113z"/>
		</g>
	</g>
	<g>
		<g>
			<path class="st1" d="M126.5,84.2v2.3h-2.3L126.5,84.2 M127,83l-4,4h4V83L127,83z"/>
		</g>
		<g>
			<path class="st1" d="M136.5,84.2v2.3h-2.3L136.5,84.2 M137,83l-4,4h4V83L137,83z"/>
		</g>
		<g>
			<path class="st1" d="M146.5,84.2v2.3h-2.3L146.5,84.2 M147,83l-4,4h4V83L147,83z"/>
		</g>
		<g>
			<path class="st1" d="M156.5,84.2v2.3h-2.3L156.5,84.2 M157,83l-4,4h4V83L157,83z"/>
		</g>
		<g>
			<path class="st1" d="M126.5,94.2v2.3h-2.3L126.5,94.2 M127,93l-4,4h4V93L127,93z"/>
		</g>
		<g>
			<path class="st1" d="M136.5,94.2v2.3h-2.3L136.5,94.2 M137,93l-4,4h4V93L137,93z"/>
		</g>
		<g>
			<path class="st1" d="M146.5,94.2v2.3h-2.3L146.5,94.2 M147,93l-4,4h4V93L147,93z"/>
		</g>
		<g>
			<path class="st1" d="M156.5,94.2v2.3h-2.3L156.5,94.2 M157,93l-4,4h4V93L157,93z"/>
		</g>
		<g>
			<path class="st1" d="M126.5,104.2v2.3h-2.3L126.5,104.2 M127,103l-4,4h4V103L127,103z"/>
		</g>
		<g>
			<path class="st1" d="M136.5,104.2v2.3h-2.3L136.5,104.2 M137,103l-4,4h4V103L137,103z"/>
		</g>
		<g>
			<path class="st1" d="M146.5,104.2v2.3h-2.3L146.5,104.2 M147,103l-4,4h4V103L147,103z"/>
		</g>
		<g>
			<path class="st1" d="M156.5,104.2v2.3h-2.3L156.5,104.2 M157,103l-4,4h4V103L157,103z"/>
		</g>
		<g>
			<path class="st1" d="M126.5,114.2v2.3h-2.3L126.5,114.2 M127,113l-4,4h4V113L127,113z"/>
		</g>
		<g>
			<path class="st1" d="M136.5,114.2v2.3h-2.3L136.5,114.2 M137,113l-4,4h4V113L137,113z"/>
		</g>
		<g>
			<path class="st1" d="M146.5,114.2v2.3h-2.3L146.5,114.2 M147,113l-4,4h4V113L147,113z"/>
		</g>
		<g>
			<path class="st1" d="M156.5,114.2v2.3h-2.3L156.5,114.2 M157,113l-4,4h4V113L157,113z"/>
		</g>
	</g>
	<g>
		<g>
			<path class="st1" d="M166.5,84.2v2.3h-2.3L166.5,84.2 M167,83l-4,4h4V83L167,83z"/>
		</g>
		<g>
			<path class="st1" d="M176.5,84.2v2.3h-2.3L176.5,84.2 M177,83l-4,4h4V83L177,83z"/>
		</g>
		<g>
			<path class="st1" d="M186.5,84.2v2.3h-2.3L186.5,84.2 M187,83l-4,4h4V83L187,83z"/>
		</g>
		<g>
			<path class="st1" d="M196.5,84.2v2.3h-2.3L196.5,84.2 M197,83l-4,4h4V83L197,83z"/>
		</g>
		<g>
			<path class="st1" d="M166.5,94.2v2.3h-2.3L166.5,94.2 M167,93l-4,4h4V93L167,93z"/>
		</g>
		<g>
			<path class="st1" d="M176.5,94.2v2.3h-2.3L176.5,94.2 M177,93l-4,4h4V93L177,93z"/>
		</g>
		<g>
			<path class="st1" d="M186.5,94.2v2.3h-2.3L186.5,94.2 M187,93l-4,4h4V93L187,93z"/>
		</g>
		<g>
			<path class="st1" d="M196.5,94.2v2.3h-2.3L196.5,94.2 M197,93l-4,4h4V93L197,93z"/>
		</g>
		<g>
			<path class="st1" d="M166.5,104.2v2.3h-2.3L166.5,104.2 M167,103l-4,4h4V103L167,103z"/>
		</g>
		<g>
			<path class="st1" d="M176.5,104.2v2.3h-2.3L176.5,104.2 M177,103l-4,4h4V103L177,103z"/>
		</g>
		<g>
			<path class="st1" d="M186.5,104.2v2.3h-2.3L186.5,104.2 M187,103l-4,4h4V103L187,103z"/>
		</g>
		<g>
			<path class="st1" d="M196.5,104.2v2.3h-2.3L196.5,104.2 M197,103l-4,4h4V103L197,103z"/>
		</g>
		<g>
			<path class="st1" d="M166.5,114.2v2.3h-2.3L166.5,114.2 M167,113l-4,4h4V113L167,113z"/>
		</g>
		<g>
			<path class="st1" d="M176.5,114.2v2.3h-2.3L176.5,114.2 M177,113l-4,4h4V113L177,113z"/>
		</g>
		<g>
			<path class="st1" d="M186.5,114.2v2.3h-2.3L186.5,114.2 M187,113l-4,4h4V113L187,113z"/>
		</g>
		<g>
			<path class="st1" d="M196.5,114.2v2.3h-2.3L196.5,114.2 M197,113l-4,4h4V113L197,113z"/>
		</g>
	</g>
	<g>
		<g>
			<path class="st1" d="M206.5,84.2v2.3h-2.3L206.5,84.2 M207,83l-4,4h4V83L207,83z"/>
		</g>
		<g>
			<path class="st1" d="M216.5,84.2v2.3h-2.3L216.5,84.2 M217,83l-4,4h4V83L217,83z"/>
		</g>
		<g>
			<path class="st1" d="M226.5,84.2v2.3h-2.3L226.5,84.2 M227,83l-4,4h4V83L227,83z"/>
		</g>
		<g>
			<path class="st1" d="M236.5,84.2v2.3h-2.3L236.5,84.2 M237,83l-4,4h4V83L237,83z"/>
		</g>
		<g>
			<path class="st1" d="M206.5,94.2v2.3h-2.3L206.5,94.2 M207,93l-4,4h4V93L207,93z"/>
		</g>
		<g>
			<path class="st1" d="M216.5,94.2v2.3h-2.3L216.5,94.2 M217,93l-4,4h4V93L217,93z"/>
		</g>
		<g>
			<path class="st1" d="M226.5,94.2v2.3h-2.3L226.5,94.2 M227,93l-4,4h4V93L227,93z"/>
		</g>
		<g>
			<path class="st1" d="M236.5,94.2v2.3h-2.3L236.5,94.2 M237,93l-4,4h4V93L237,93z"/>
		</g>
		<g>
			<path class="st1" d="M206.5,104.2v2.3h-2.3L206.5,104.2 M207,103l-4,4h4V103L207,103z"/>
		</g>
		<g>
			<path class="st1" d="M216.5,104.2v2.3h-2.3L216.5,104.2 M217,103l-4,4h4V103L217,103z"/>
		</g>
		<g>
			<path class="st1" d="M226.5,104.2v2.3h-2.3L226.5,104.2 M227,103l-4,4h4V103L227,103z"/>
		</g>
		<g>
			<path class="st1" d="M236.5,104.2v2.3h-2.3L236.5,104.2 M237,103l-4,4h4V103L237,103z"/>
		</g>
		<g>
			<path class="st1" d="M206.5,114.2v2.3h-2.3L206.5,114.2 M207,113l-4,4h4V113L207,113z"/>
		</g>
		<g>
			<path class="st1" d="M216.5,114.2v2.3h-2.3L216.5,114.2 M217,113l-4,4h4V113L217,113z"/>
		</g>
		<g>
			<path class="st1" d="M226.5,114.2v2.3h-2.3L226.5,114.2 M227,113l-4,4h4V113L227,113z"/>
		</g>
		<g>
			<path class="st1" d="M236.5,114.2v2.3h-2.3L236.5,114.2 M237,113l-4,4h4V113L237,113z"/>
		</g>
	</g>
</g>
<g>
	<g>
		<g>
			<path class="st1" d="M6.5,124.2v2.3H4.2L6.5,124.2 M7,123l-4,4h4V123L7,123z"/>
		</g>
		<g>
			<path class="st1" d="M16.5,124.2v2.3h-2.3L16.5,124.2 M17,123l-4,4h4V123L17,123z"/>
		</g>
		<g>
			<path class="st1" d="M26.5,124.2v2.3h-2.3L26.5,124.2 M27,123l-4,4h4V123L27,123z"/>
		</g>
		<g>
			<path class="st1" d="M36.5,124.2v2.3h-2.3L36.5,124.2 M37,123l-4,4h4V123L37,123z"/>
		</g>
		<g>
			<path class="st1" d="M6.5,134.2v2.3H4.2L6.5,134.2 M7,133l-4,4h4V133L7,133z"/>
		</g>
		<g>
			<path class="st1" d="M16.5,134.2v2.3h-2.3L16.5,134.2 M17,133l-4,4h4V133L17,133z"/>
		</g>
		<g>
			<path class="st1" d="M26.5,134.2v2.3h-2.3L26.5,134.2 M27,133l-4,4h4V133L27,133z"/>
		</g>
		<g>
			<path class="st1" d="M36.5,134.2v2.3h-2.3L36.5,134.2 M37,133l-4,4h4V133L37,133z"/>
		</g>
		<g>
			<path class="st1" d="M6.5,144.2v2.3H4.2L6.5,144.2 M7,143l-4,4h4V143L7,143z"/>
		</g>
		<g>
			<path class="st1" d="M16.5,144.2v2.3h-2.3L16.5,144.2 M17,143l-4,4h4V143L17,143z"/>
		</g>
		<g>
			<path class="st1" d="M26.5,144.2v2.3h-2.3L26.5,144.2 M27,143l-4,4h4V143L27,143z"/>
		</g>
		<g>
			<path class="st1" d="M36.5,144.2v2.3h-2.3L36.5,144.2 M37,143l-4,4h4V143L37,143z"/>
		</g>
		<g>
			<path class="st1" d="M6.5,154.2v2.3H4.2L6.5,154.2 M7,153l-4,4h4V153L7,153z"/>
		</g>
		<g>
			<path class="st1" d="M16.5,154.2v2.3h-2.3L16.5,154.2 M17,153l-4,4h4V153L17,153z"/>
		</g>
		<g>
			<path class="st1" d="M26.5,154.2v2.3h-2.3L26.5,154.2 M27,153l-4,4h4V153L27,153z"/>
		</g>
		<g>
			<path class="st1" d="M36.5,154.2v2.3h-2.3L36.5,154.2 M37,153l-4,4h4V153L37,153z"/>
		</g>
	</g>
	<g>
		<g>
			<path class="st1" d="M46.5,124.2v2.3h-2.3L46.5,124.2 M47,123l-4,4h4V123L47,123z"/>
		</g>
		<g>
			<path class="st1" d="M56.5,124.2v2.3h-2.3L56.5,124.2 M57,123l-4,4h4V123L57,123z"/>
		</g>
		<g>
			<path class="st1" d="M66.5,124.2v2.3h-2.3L66.5,124.2 M67,123l-4,4h4V123L67,123z"/>
		</g>
		<g>
			<path class="st1" d="M76.5,124.2v2.3h-2.3L76.5,124.2 M77,123l-4,4h4V123L77,123z"/>
		</g>
		<g>
			<path class="st1" d="M46.5,134.2v2.3h-2.3L46.5,134.2 M47,133l-4,4h4V133L47,133z"/>
		</g>
		<g>
			<path class="st1" d="M56.5,134.2v2.3h-2.3L56.5,134.2 M57,133l-4,4h4V133L57,133z"/>
		</g>
		<g>
			<path class="st1" d="M66.5,134.2v2.3h-2.3L66.5,134.2 M67,133l-4,4h4V133L67,133z"/>
		</g>
		<g>
			<path class="st1" d="M76.5,134.2v2.3h-2.3L76.5,134.2 M77,133l-4,4h4V133L77,133z"/>
		</g>
		<g>
			<path class="st1" d="M46.5,144.2v2.3h-2.3L46.5,144.2 M47,143l-4,4h4V143L47,143z"/>
		</g>
		<g>
			<path class="st1" d="M56.5,144.2v2.3h-2.3L56.5,144.2 M57,143l-4,4h4V143L57,143z"/>
		</g>
		<g>
			<path class="st1" d="M66.5,144.2v2.3h-2.3L66.5,144.2 M67,143l-4,4h4V143L67,143z"/>
		</g>
		<g>
			<path class="st1" d="M76.5,144.2v2.3h-2.3L76.5,144.2 M77,143l-4,4h4V143L77,143z"/>
		</g>
		<g>
			<path class="st1" d="M46.5,154.2v2.3h-2.3L46.5,154.2 M47,153l-4,4h4V153L47,153z"/>
		</g>
		<g>
			<path class="st1" d="M56.5,154.2v2.3h-2.3L56.5,154.2 M57,153l-4,4h4V153L57,153z"/>
		</g>
		<g>
			<path class="st1" d="M66.5,154.2v2.3h-2.3L66.5,154.2 M67,153l-4,4h4V153L67,153z"/>
		</g>
		<g>
			<path class="st1" d="M76.5,154.2v2.3h-2.3L76.5,154.2 M77,153l-4,4h4V153L77,153z"/>
		</g>
	</g>
	<g>
		<g>
			<path class="st1" d="M86.5,124.2v2.3h-2.3L86.5,124.2 M87,123l-4,4h4V123L87,123z"/>
		</g>
		<g>
			<path class="st1" d="M96.5,124.2v2.3h-2.3L96.5,124.2 M97,123l-4,4h4V123L97,123z"/>
		</g>
		<g>
			<path class="st1" d="M106.5,124.2v2.3h-2.3L106.5,124.2 M107,123l-4,4h4V123L107,123z"/>
		</g>
		<g>
			<path class="st1" d="M116.5,124.2v2.3h-2.3L116.5,124.2 M117,123l-4,4h4V123L117,123z"/>
		</g>
		<g>
			<path class="st1" d="M86.5,134.2v2.3h-2.3L86.5,134.2 M87,133l-4,4h4V133L87,133z"/>
		</g>
		<g>
			<path class="st1" d="M96.5,134.2v2.3h-2.3L96.5,134.2 M97,133l-4,4h4V133L97,133z"/>
		</g>
		<g>
			<path class="st1" d="M106.5,134.2v2.3h-2.3L106.5,134.2 M107,133l-4,4h4V133L107,133z"/>
		</g>
		<g>
			<path class="st1" d="M116.5,134.2v2.3h-2.3L116.5,134.2 M117,133l-4,4h4V133L117,133z"/>
		</g>
		<g>
			<path class="st1" d="M86.5,144.2v2.3h-2.3L86.5,144.2 M87,143l-4,4h4V143L87,143z"/>
		</g>
		<g>
			<path class="st1" d="M96.5,144.2v2.3h-2.3L96.5,144.2 M97,143l-4,4h4V143L97,143z"/>
		</g>
		<g>
			<path class="st1" d="M106.5,144.2v2.3h-2.3L106.5,144.2 M107,143l-4,4h4V143L107,143z"/>
		</g>
		<g>
			<path class="st1" d="M116.5,144.2v2.3h-2.3L116.5,144.2 M117,143l-4,4h4V143L117,143z"/>
		</g>
		<g>
			<path class="st1" d="M86.5,154.2v2.3h-2.3L86.5,154.2 M87,153l-4,4h4V153L87,153z"/>
		</g>
		<g>
			<path class="st1" d="M96.5,154.2v2.3h-2.3L96.5,154.2 M97,153l-4,4h4V153L97,153z"/>
		</g>
		<g>
			<path class="st1" d="M106.5,154.2v2.3h-2.3L106.5,154.2 M107,153l-4,4h4V153L107,153z"/>
		</g>
		<g>
			<path class="st1" d="M116.5,154.2v2.3h-2.3L116.5,154.2 M117,153l-4,4h4V153L117,153z"/>
		</g>
	</g>
	<g>
		<g>
			<path class="st1" d="M126.5,124.2v2.3h-2.3L126.5,124.2 M127,123l-4,4h4V123L127,123z"/>
		</g>
		<g>
			<path class="st1" d="M136.5,124.2v2.3h-2.3L136.5,124.2 M137,123l-4,4h4V123L137,123z"/>
		</g>
		<g>
			<path class="st1" d="M146.5,124.2v2.3h-2.3L146.5,124.2 M147,123l-4,4h4V123L147,123z"/>
		</g>
		<g>
			<path class="st1" d="M156.5,124.2v2.3h-2.3L156.5,124.2 M157,123l-4,4h4V123L157,123z"/>
		</g>
		<g>
			<path class="st1" d="M126.5,134.2v2.3h-2.3L126.5,134.2 M127,133l-4,4h4V133L127,133z"/>
		</g>
		<g>
			<path class="st1" d="M136.5,134.2v2.3h-2.3L136.5,134.2 M137,133l-4,4h4V133L137,133z"/>
		</g>
		<g>
			<path class="st1" d="M146.5,134.2v2.3h-2.3L146.5,134.2 M147,133l-4,4h4V133L147,133z"/>
		</g>
		<g>
			<path class="st1" d="M156.5,134.2v2.3h-2.3L156.5,134.2 M157,133l-4,4h4V133L157,133z"/>
		</g>
		<g>
			<path class="st1" d="M126.5,144.2v2.3h-2.3L126.5,144.2 M127,143l-4,4h4V143L127,143z"/>
		</g>
		<g>
			<path class="st1" d="M136.5,144.2v2.3h-2.3L136.5,144.2 M137,143l-4,4h4V143L137,143z"/>
		</g>
		<g>
			<path class="st1" d="M146.5,144.2v2.3h-2.3L146.5,144.2 M147,143l-4,4h4V143L147,143z"/>
		</g>
		<g>
			<path class="st1" d="M156.5,144.2v2.3h-2.3L156.5,144.2 M157,143l-4,4h4V143L157,143z"/>
		</g>
		<g>
			<path class="st1" d="M126.5,154.2v2.3h-2.3L126.5,154.2 M127,153l-4,4h4V153L127,153z"/>
		</g>
		<g>
			<path class="st1" d="M136.5,154.2v2.3h-2.3L136.5,154.2 M137,153l-4,4h4V153L137,153z"/>
		</g>
		<g>
			<path class="st1" d="M146.5,154.2v2.3h-2.3L146.5,154.2 M147,153l-4,4h4V153L147,153z"/>
		</g>
		<g>
			<path class="st1" d="M156.5,154.2v2.3h-2.3L156.5,154.2 M157,153l-4,4h4V153L157,153z"/>
		</g>
	</g>
	<g>
		<g>
			<path class="st1" d="M166.5,124.2v2.3h-2.3L166.5,124.2 M167,123l-4,4h4V123L167,123z"/>
		</g>
		<g>
			<path class="st1" d="M176.5,124.2v2.3h-2.3L176.5,124.2 M177,123l-4,4h4V123L177,123z"/>
		</g>
		<g>
			<path class="st1" d="M186.5,124.2v2.3h-2.3L186.5,124.2 M187,123l-4,4h4V123L187,123z"/>
		</g>
		<g>
			<path class="st1" d="M196.5,124.2v2.3h-2.3L196.5,124.2 M197,123l-4,4h4V123L197,123z"/>
		</g>
		<g>
			<path class="st1" d="M166.5,134.2v2.3h-2.3L166.5,134.2 M167,133l-4,4h4V133L167,133z"/>
		</g>
		<g>
			<path class="st1" d="M176.5,134.2v2.3h-2.3L176.5,134.2 M177,133l-4,4h4V133L177,133z"/>
		</g>
		<g>
			<path class="st1" d="M186.5,134.2v2.3h-2.3L186.5,134.2 M187,133l-4,4h4V133L187,133z"/>
		</g>
		<g>
			<path class="st1" d="M196.5,134.2v2.3h-2.3L196.5,134.2 M197,133l-4,4h4V133L197,133z"/>
		</g>
		<g>
			<path class="st1" d="M166.5,144.2v2.3h-2.3L166.5,144.2 M167,143l-4,4h4V143L167,143z"/>
		</g>
		<g>
			<path class="st1" d="M176.5,144.2v2.3h-2.3L176.5,144.2 M177,143l-4,4h4V143L177,143z"/>
		</g>
		<g>
			<path class="st1" d="M186.5,144.2v2.3h-2.3L186.5,144.2 M187,143l-4,4h4V143L187,143z"/>
		</g>
		<g>
			<path class="st1" d="M196.5,144.2v2.3h-2.3L196.5,144.2 M197,143l-4,4h4V143L197,143z"/>
		</g>
		<g>
			<path class="st1" d="M166.5,154.2v2.3h-2.3L166.5,154.2 M167,153l-4,4h4V153L167,153z"/>
		</g>
		<g>
			<path class="st1" d="M176.5,154.2v2.3h-2.3L176.5,154.2 M177,153l-4,4h4V153L177,153z"/>
		</g>
		<g>
			<path class="st1" d="M186.5,154.2v2.3h-2.3L186.5,154.2 M187,153l-4,4h4V153L187,153z"/>
		</g>
		<g>
			<path class="st1" d="M196.5,154.2v2.3h-2.3L196.5,154.2 M197,153l-4,4h4V153L197,153z"/>
		</g>
	</g>
	<g>
		<g>
			<path class="st1" d="M206.5,124.2v2.3h-2.3L206.5,124.2 M207,123l-4,4h4V123L207,123z"/>
		</g>
		<g>
			<path class="st1" d="M216.5,124.2v2.3h-2.3L216.5,124.2 M217,123l-4,4h4V123L217,123z"/>
		</g>
		<g>
			<path class="st1" d="M226.5,124.2v2.3h-2.3L226.5,124.2 M227,123l-4,4h4V123L227,123z"/>
		</g>
		<g>
			<path class="st1" d="M236.5,124.2v2.3h-2.3L236.5,124.2 M237,123l-4,4h4V123L237,123z"/>
		</g>
		<g>
			<path class="st1" d="M206.5,134.2v2.3h-2.3L206.5,134.2 M207,133l-4,4h4V133L207,133z"/>
		</g>
		<g>
			<path class="st1" d="M216.5,134.2v2.3h-2.3L216.5,134.2 M217,133l-4,4h4V133L217,133z"/>
		</g>
		<g>
			<path class="st1" d="M226.5,134.2v2.3h-2.3L226.5,134.2 M227,133l-4,4h4V133L227,133z"/>
		</g>
		<g>
			<path class="st1" d="M236.5,134.2v2.3h-2.3L236.5,134.2 M237,133l-4,4h4V133L237,133z"/>
		</g>
		<g>
			<path class="st1" d="M206.5,144.2v2.3h-2.3L206.5,144.2 M207,143l-4,4h4V143L207,143z"/>
		</g>
		<g>
			<path class="st1" d="M216.5,144.2v2.3h-2.3L216.5,144.2 M217,143l-4,4h4V143L217,143z"/>
		</g>
		<g>
			<path class="st1" d="M226.5,144.2v2.3h-2.3L226.5,144.2 M227,143l-4,4h4V143L227,143z"/>
		</g>
		<g>
			<path class="st1" d="M236.5,144.2v2.3h-2.3L236.5,144.2 M237,143l-4,4h4V143L237,143z"/>
		</g>
		<g>
			<path class="st1" d="M206.5,154.2v2.3h-2.3L206.5,154.2 M207,153l-4,4h4V153L207,153z"/>
		</g>
		<g>
			<path class="st1" d="M216.5,154.2v2.3h-2.3L216.5,154.2 M217,153l-4,4h4V153L217,153z"/>
		</g>
		<g>
			<path class="st1" d="M226.5,154.2v2.3h-2.3L226.5,154.2 M227,153l-4,4h4V153L227,153z"/>
		</g>
		<g>
			<path class="st1" d="M236.5,154.2v2.3h-2.3L236.5,154.2 M237,153l-4,4h4V153L237,153z"/>
		</g>
	</g>
</g>
<g>
	<g>
		<path class="st1" d="M6.5,164.2v2.3H4.2L6.5,164.2 M7,163l-4,4h4V163L7,163z"/>
	</g>
	<g>
		<path class="st1" d="M16.5,164.2v2.3h-2.3L16.5,164.2 M17,163l-4,4h4V163L17,163z"/>
	</g>
	<g>
		<path class="st1" d="M26.5,164.2v2.3h-2.3L26.5,164.2 M27,163l-4,4h4V163L27,163z"/>
	</g>
	<g>
		<path class="st1" d="M36.5,164.2v2.3h-2.3L36.5,164.2 M37,163l-4,4h4V163L37,163z"/>
	</g>
	<g>
		<path class="st1" d="M6.5,174.2v2.3H4.2L6.5,174.2 M7,173l-4,4h4V173L7,173z"/>
	</g>
	<g>
		<path class="st1" d="M16.5,174.2v2.3h-2.3L16.5,174.2 M17,173l-4,4h4V173L17,173z"/>
	</g>
	<g>
		<path class="st1" d="M26.5,174.2v2.3h-2.3L26.5,174.2 M27,173l-4,4h4V173L27,173z"/>
	</g>
	<g>
		<path class="st1" d="M36.5,174.2v2.3h-2.3L36.5,174.2 M37,173l-4,4h4V173L37,173z"/>
	</g>
	<g>
		<path class="st1" d="M6.5,184.2v2.3H4.2L6.5,184.2 M7,183l-4,4h4V183L7,183z"/>
	</g>
	<g>
		<path class="st1" d="M16.5,184.2v2.3h-2.3L16.5,184.2 M17,183l-4,4h4V183L17,183z"/>
	</g>
	<g>
		<path class="st1" d="M26.5,184.2v2.3h-2.3L26.5,184.2 M27,183l-4,4h4V183L27,183z"/>
	</g>
	<g>
		<path class="st1" d="M36.5,184.2v2.3h-2.3L36.5,184.2 M37,183l-4,4h4V183L37,183z"/>
	</g>
	<g>
		<path class="st1" d="M6.5,194.2v2.3H4.2L6.5,194.2 M7,193l-4,4h4V193L7,193z"/>
	</g>
	<g>
		<path class="st1" d="M16.5,194.2v2.3h-2.3L16.5,194.2 M17,193l-4,4h4V193L17,193z"/>
	</g>
	<g>
		<path class="st1" d="M26.5,194.2v2.3h-2.3L26.5,194.2 M27,193l-4,4h4V193L27,193z"/>
	</g>
	<g>
		<path class="st1" d="M36.5,194.2v2.3h-2.3L36.5,194.2 M37,193l-4,4h4V193L37,193z"/>
	</g>
</g>
<g>
	<g>
		<path class="st1" d="M46.5,164.2v2.3h-2.3L46.5,164.2 M47,163l-4,4h4V163L47,163z"/>
	</g>
	<g>
		<path class="st1" d="M56.5,164.2v2.3h-2.3L56.5,164.2 M57,163l-4,4h4V163L57,163z"/>
	</g>
	<g>
		<path class="st1" d="M66.5,164.2v2.3h-2.3L66.5,164.2 M67,163l-4,4h4V163L67,163z"/>
	</g>
	<g>
		<path class="st1" d="M76.5,164.2v2.3h-2.3L76.5,164.2 M77,163l-4,4h4V163L77,163z"/>
	</g>
	<g>
		<path class="st1" d="M46.5,174.2v2.3h-2.3L46.5,174.2 M47,173l-4,4h4V173L47,173z"/>
	</g>
	<g>
		<path class="st1" d="M56.5,174.2v2.3h-2.3L56.5,174.2 M57,173l-4,4h4V173L57,173z"/>
	</g>
	<g>
		<path class="st1" d="M66.5,174.2v2.3h-2.3L66.5,174.2 M67,173l-4,4h4V173L67,173z"/>
	</g>
	<g>
		<path class="st1" d="M76.5,174.2v2.3h-2.3L76.5,174.2 M77,173l-4,4h4V173L77,173z"/>
	</g>
	<g>
		<path class="st1" d="M46.5,184.2v2.3h-2.3L46.5,184.2 M47,183l-4,4h4V183L47,183z"/>
	</g>
	<g>
		<path class="st1" d="M56.5,184.2v2.3h-2.3L56.5,184.2 M57,183l-4,4h4V183L57,183z"/>
	</g>
	<g>
		<path class="st1" d="M66.5,184.2v2.3h-2.3L66.5,184.2 M67,183l-4,4h4V183L67,183z"/>
	</g>
	<g>
		<path class="st1" d="M76.5,184.2v2.3h-2.3L76.5,184.2 M77,183l-4,4h4V183L77,183z"/>
	</g>
	<g>
		<path class="st1" d="M46.5,194.2v2.3h-2.3L46.5,194.2 M47,193l-4,4h4V193L47,193z"/>
	</g>
	<g>
		<path class="st1" d="M56.5,194.2v2.3h-2.3L56.5,194.2 M57,193l-4,4h4V193L57,193z"/>
	</g>
	<g>
		<path class="st1" d="M66.5,194.2v2.3h-2.3L66.5,194.2 M67,193l-4,4h4V193L67,193z"/>
	</g>
	<g>
		<path class="st1" d="M76.5,194.2v2.3h-2.3L76.5,194.2 M77,193l-4,4h4V193L77,193z"/>
	</g>
</g>
<g>
	<g>
		<path class="st1" d="M86.5,164.2v2.3h-2.3L86.5,164.2 M87,163l-4,4h4V163L87,163z"/>
	</g>
	<g>
		<path class="st1" d="M96.5,164.2v2.3h-2.3L96.5,164.2 M97,163l-4,4h4V163L97,163z"/>
	</g>
	<g>
		<path class="st1" d="M106.5,164.2v2.3h-2.3L106.5,164.2 M107,163l-4,4h4V163L107,163z"/>
	</g>
	<g>
		<path class="st1" d="M116.5,164.2v2.3h-2.3L116.5,164.2 M117,163l-4,4h4V163L117,163z"/>
	</g>
	<g>
		<path class="st1" d="M86.5,174.2v2.3h-2.3L86.5,174.2 M87,173l-4,4h4V173L87,173z"/>
	</g>
	<g>
		<path class="st1" d="M96.5,174.2v2.3h-2.3L96.5,174.2 M97,173l-4,4h4V173L97,173z"/>
	</g>
	<g>
		<path class="st1" d="M106.5,174.2v2.3h-2.3L106.5,174.2 M107,173l-4,4h4V173L107,173z"/>
	</g>
	<g>
		<path class="st1" d="M116.5,174.2v2.3h-2.3L116.5,174.2 M117,173l-4,4h4V173L117,173z"/>
	</g>
	<g>
		<path class="st1" d="M86.5,184.2v2.3h-2.3L86.5,184.2 M87,183l-4,4h4V183L87,183z"/>
	</g>
	<g>
		<path class="st1" d="M96.5,184.2v2.3h-2.3L96.5,184.2 M97,183l-4,4h4V183L97,183z"/>
	</g>
	<g>
		<path class="st1" d="M106.5,184.2v2.3h-2.3L106.5,184.2 M107,183l-4,4h4V183L107,183z"/>
	</g>
	<g>
		<path class="st1" d="M116.5,184.2v2.3h-2.3L116.5,184.2 M117,183l-4,4h4V183L117,183z"/>
	</g>
	<g>
		<path class="st1" d="M86.5,194.2v2.3h-2.3L86.5,194.2 M87,193l-4,4h4V193L87,193z"/>
	</g>
	<g>
		<path class="st1" d="M96.5,194.2v2.3h-2.3L96.5,194.2 M97,193l-4,4h4V193L97,193z"/>
	</g>
	<g>
		<path class="st1" d="M106.5,194.2v2.3h-2.3L106.5,194.2 M107,193l-4,4h4V193L107,193z"/>
	</g>
	<g>
		<path class="st1" d="M116.5,194.2v2.3h-2.3L116.5,194.2 M117,193l-4,4h4V193L117,193z"/>
	</g>
</g>
<g>
	<g>
		<path class="st1" d="M126.5,164.2v2.3h-2.3L126.5,164.2 M127,163l-4,4h4V163L127,163z"/>
	</g>
	<g>
		<path class="st1" d="M136.5,164.2v2.3h-2.3L136.5,164.2 M137,163l-4,4h4V163L137,163z"/>
	</g>
	<g>
		<path class="st1" d="M146.5,164.2v2.3h-2.3L146.5,164.2 M147,163l-4,4h4V163L147,163z"/>
	</g>
	<g>
		<path class="st1" d="M156.5,164.2v2.3h-2.3L156.5,164.2 M157,163l-4,4h4V163L157,163z"/>
	</g>
	<g>
		<path class="st1" d="M126.5,174.2v2.3h-2.3L126.5,174.2 M127,173l-4,4h4V173L127,173z"/>
	</g>
	<g>
		<path class="st1" d="M136.5,174.2v2.3h-2.3L136.5,174.2 M137,173l-4,4h4V173L137,173z"/>
	</g>
	<g>
		<path class="st1" d="M146.5,174.2v2.3h-2.3L146.5,174.2 M147,173l-4,4h4V173L147,173z"/>
	</g>
	<g>
		<path class="st1" d="M156.5,174.2v2.3h-2.3L156.5,174.2 M157,173l-4,4h4V173L157,173z"/>
	</g>
	<g>
		<path class="st1" d="M126.5,184.2v2.3h-2.3L126.5,184.2 M127,183l-4,4h4V183L127,183z"/>
	</g>
	<g>
		<path class="st1" d="M136.5,184.2v2.3h-2.3L136.5,184.2 M137,183l-4,4h4V183L137,183z"/>
	</g>
	<g>
		<path class="st1" d="M146.5,184.2v2.3h-2.3L146.5,184.2 M147,183l-4,4h4V183L147,183z"/>
	</g>
	<g>
		<path class="st1" d="M156.5,184.2v2.3h-2.3L156.5,184.2 M157,183l-4,4h4V183L157,183z"/>
	</g>
	<g>
		<path class="st1" d="M126.5,194.2v2.3h-2.3L126.5,194.2 M127,193l-4,4h4V193L127,193z"/>
	</g>
	<g>
		<path class="st1" d="M136.5,194.2v2.3h-2.3L136.5,194.2 M137,193l-4,4h4V193L137,193z"/>
	</g>
	<g>
		<path class="st1" d="M146.5,194.2v2.3h-2.3L146.5,194.2 M147,193l-4,4h4V193L147,193z"/>
	</g>
	<g>
		<path class="st1" d="M156.5,194.2v2.3h-2.3L156.5,194.2 M157,193l-4,4h4V193L157,193z"/>
	</g>
</g>
<g>
	<g>
		<path class="st1" d="M206.5,164.2v2.3h-2.3L206.5,164.2 M207,163l-4,4h4V163L207,163z"/>
	</g>
	<g>
		<path class="st1" d="M216.5,164.2v2.3h-2.3L216.5,164.2 M217,163l-4,4h4V163L217,163z"/>
	</g>
	<g>
		<path class="st1" d="M226.5,164.2v2.3h-2.3L226.5,164.2 M227,163l-4,4h4V163L227,163z"/>
	</g>
	<g>
		<path class="st1" d="M236.5,164.2v2.3h-2.3L236.5,164.2 M237,163l-4,4h4V163L237,163z"/>
	</g>
	<g>
		<path class="st1" d="M206.5,174.2v2.3h-2.3L206.5,174.2 M207,173l-4,4h4V173L207,173z"/>
	</g>
	<g>
		<path class="st1" d="M216.5,174.2v2.3h-2.3L216.5,174.2 M217,173l-4,4h4V173L217,173z"/>
	</g>
	<g>
		<path class="st1" d="M226.5,174.2v2.3h-2.3L226.5,174.2 M227,173l-4,4h4V173L227,173z"/>
	</g>
	<g>
		<path class="st1" d="M236.5,174.2v2.3h-2.3L236.5,174.2 M237,173l-4,4h4V173L237,173z"/>
	</g>
	<g>
		<path class="st1" d="M206.5,184.2v2.3h-2.3L206.5,184.2 M207,183l-4,4h4V183L207,183z"/>
	</g>
	<g>
		<path class="st1" d="M216.5,184.2v2.3h-2.3L216.5,184.2 M217,183l-4,4h4V183L217,183z"/>
	</g>
	<g>
		<path class="st1" d="M226.5,184.2v2.3h-2.3L226.5,184.2 M227,183l-4,4h4V183L227,183z"/>
	</g>
	<g>
		<path class="st1" d="M236.5,184.2v2.3h-2.3L236.5,184.2 M237,183l-4,4h4V183L237,183z"/>
	</g>
	<g>
		<path class="st1" d="M206.5,194.2v2.3h-2.3L206.5,194.2 M207,193l-4,4h4V193L207,193z"/>
	</g>
	<g>
		<path class="st1" d="M216.5,194.2v2.3h-2.3L216.5,194.2 M217,193l-4,4h4V193L217,193z"/>
	</g>
	<g>
		<path class="st1" d="M226.5,194.2v2.3h-2.3L226.5,194.2 M227,193l-4,4h4V193L227,193z"/>
	</g>
	<g>
		<path class="st1" d="M236.5,194.2v2.3h-2.3L236.5,194.2 M237,193l-4,4h4V193L237,193z"/>
	</g>
</g>
<g>
	<g>
		<g>
			<path class="st1" d="M6.5,204.2v2.3H4.2L6.5,204.2 M7,203l-4,4h4V203L7,203z"/>
		</g>
		<g>
			<path class="st1" d="M16.5,204.2v2.3h-2.3L16.5,204.2 M17,203l-4,4h4V203L17,203z"/>
		</g>
		<g>
			<path class="st1" d="M26.5,204.2v2.3h-2.3L26.5,204.2 M27,203l-4,4h4V203L27,203z"/>
		</g>
		<g>
			<path class="st1" d="M36.5,204.2v2.3h-2.3L36.5,204.2 M37,203l-4,4h4V203L37,203z"/>
		</g>
		<g>
			<path class="st1" d="M6.5,214.2v2.3H4.2L6.5,214.2 M7,213l-4,4h4V213L7,213z"/>
		</g>
		<g>
			<path class="st1" d="M16.5,214.2v2.3h-2.3L16.5,214.2 M17,213l-4,4h4V213L17,213z"/>
		</g>
		<g>
			<path class="st1" d="M26.5,214.2v2.3h-2.3L26.5,214.2 M27,213l-4,4h4V213L27,213z"/>
		</g>
		<g>
			<path class="st1" d="M36.5,214.2v2.3h-2.3L36.5,214.2 M37,213l-4,4h4V213L37,213z"/>
		</g>
		<g>
			<path class="st1" d="M6.5,224.2v2.3H4.2L6.5,224.2 M7,223l-4,4h4V223L7,223z"/>
		</g>
		<g>
			<path class="st1" d="M16.5,224.2v2.3h-2.3L16.5,224.2 M17,223l-4,4h4V223L17,223z"/>
		</g>
		<g>
			<path class="st1" d="M26.5,224.2v2.3h-2.3L26.5,224.2 M27,223l-4,4h4V223L27,223z"/>
		</g>
		<g>
			<path class="st1" d="M36.5,224.2v2.3h-2.3L36.5,224.2 M37,223l-4,4h4V223L37,223z"/>
		</g>
		<g>
			<path class="st1" d="M6.5,234.2v2.3H4.2L6.5,234.2 M7,233l-4,4h4V233L7,233z"/>
		</g>
		<g>
			<path class="st1" d="M16.5,234.2v2.3h-2.3L16.5,234.2 M17,233l-4,4h4V233L17,233z"/>
		</g>
		<g>
			<path class="st1" d="M26.5,234.2v2.3h-2.3L26.5,234.2 M27,233l-4,4h4V233L27,233z"/>
		</g>
		<g>
			<path class="st1" d="M36.5,234.2v2.3h-2.3L36.5,234.2 M37,233l-4,4h4V233L37,233z"/>
		</g>
	</g>
	<g>
		<g>
			<path class="st1" d="M46.5,204.2v2.3h-2.3L46.5,204.2 M47,203l-4,4h4V203L47,203z"/>
		</g>
		<g>
			<path class="st1" d="M56.5,204.2v2.3h-2.3L56.5,204.2 M57,203l-4,4h4V203L57,203z"/>
		</g>
		<g>
			<path class="st1" d="M66.5,204.2v2.3h-2.3L66.5,204.2 M67,203l-4,4h4V203L67,203z"/>
		</g>
		<g>
			<path class="st1" d="M76.5,204.2v2.3h-2.3L76.5,204.2 M77,203l-4,4h4V203L77,203z"/>
		</g>
		<g>
			<path class="st1" d="M46.5,214.2v2.3h-2.3L46.5,214.2 M47,213l-4,4h4V213L47,213z"/>
		</g>
		<g>
			<path class="st1" d="M56.5,214.2v2.3h-2.3L56.5,214.2 M57,213l-4,4h4V213L57,213z"/>
		</g>
		<g>
			<path class="st1" d="M66.5,214.2v2.3h-2.3L66.5,214.2 M67,213l-4,4h4V213L67,213z"/>
		</g>
		<g>
			<path class="st1" d="M76.5,214.2v2.3h-2.3L76.5,214.2 M77,213l-4,4h4V213L77,213z"/>
		</g>
		<g>
			<path class="st1" d="M46.5,224.2v2.3h-2.3L46.5,224.2 M47,223l-4,4h4V223L47,223z"/>
		</g>
		<g>
			<path class="st1" d="M56.5,224.2v2.3h-2.3L56.5,224.2 M57,223l-4,4h4V223L57,223z"/>
		</g>
		<g>
			<path class="st1" d="M66.5,224.2v2.3h-2.3L66.5,224.2 M67,223l-4,4h4V223L67,223z"/>
		</g>
		<g>
			<path class="st1" d="M76.5,224.2v2.3h-2.3L76.5,224.2 M77,223l-4,4h4V223L77,223z"/>
		</g>
		<g>
			<path class="st1" d="M46.5,234.2v2.3h-2.3L46.5,234.2 M47,233l-4,4h4V233L47,233z"/>
		</g>
		<g>
			<path class="st1" d="M56.5,234.2v2.3h-2.3L56.5,234.2 M57,233l-4,4h4V233L57,233z"/>
		</g>
		<g>
			<path class="st1" d="M66.5,234.2v2.3h-2.3L66.5,234.2 M67,233l-4,4h4V233L67,233z"/>
		</g>
		<g>
			<path class="st1" d="M76.5,234.2v2.3h-2.3L76.5,234.2 M77,233l-4,4h4V233L77,233z"/>
		</g>
	</g>
	<g>
		<g>
			<path class="st1" d="M86.5,204.2v2.3h-2.3L86.5,204.2 M87,203l-4,4h4V203L87,203z"/>
		</g>
		<g>
			<path class="st1" d="M96.5,204.2v2.3h-2.3L96.5,204.2 M97,203l-4,4h4V203L97,203z"/>
		</g>
		<g>
			<path class="st1" d="M106.5,204.2v2.3h-2.3L106.5,204.2 M107,203l-4,4h4V203L107,203z"/>
		</g>
		<g>
			<path class="st1" d="M116.5,204.2v2.3h-2.3L116.5,204.2 M117,203l-4,4h4V203L117,203z"/>
		</g>
		<g>
			<path class="st1" d="M86.5,214.2v2.3h-2.3L86.5,214.2 M87,213l-4,4h4V213L87,213z"/>
		</g>
		<g>
			<path class="st1" d="M96.5,214.2v2.3h-2.3L96.5,214.2 M97,213l-4,4h4V213L97,213z"/>
		</g>
		<g>
			<path class="st1" d="M106.5,214.2v2.3h-2.3L106.5,214.2 M107,213l-4,4h4V213L107,213z"/>
		</g>
		<g>
			<path class="st1" d="M116.5,214.2v2.3h-2.3L116.5,214.2 M117,213l-4,4h4V213L117,213z"/>
		</g>
		<g>
			<path class="st1" d="M86.5,224.2v2.3h-2.3L86.5,224.2 M87,223l-4,4h4V223L87,223z"/>
		</g>
		<g>
			<path class="st1" d="M96.5,224.2v2.3h-2.3L96.5,224.2 M97,223l-4,4h4V223L97,223z"/>
		</g>
		<g>
			<path class="st1" d="M106.5,224.2v2.3h-2.3L106.5,224.2 M107,223l-4,4h4V223L107,223z"/>
		</g>
		<g>
			<path class="st1" d="M116.5,224.2v2.3h-2.3L116.5,224.2 M117,223l-4,4h4V223L117,223z"/>
		</g>
		<g>
			<path class="st1" d="M86.5,234.2v2.3h-2.3L86.5,234.2 M87,233l-4,4h4V233L87,233z"/>
		</g>
		<g>
			<path class="st1" d="M96.5,234.2v2.3h-2.3L96.5,234.2 M97,233l-4,4h4V233L97,233z"/>
		</g>
		<g>
			<path class="st1" d="M106.5,234.2v2.3h-2.3L106.5,234.2 M107,233l-4,4h4V233L107,233z"/>
		</g>
		<g>
			<path class="st1" d="M116.5,234.2v2.3h-2.3L116.5,234.2 M117,233l-4,4h4V233L117,233z"/>
		</g>
	</g>
	<g>
		<g>
			<path class="st1" d="M126.5,204.2v2.3h-2.3L126.5,204.2 M127,203l-4,4h4V203L127,203z"/>
		</g>
		<g>
			<path class="st1" d="M136.5,204.2v2.3h-2.3L136.5,204.2 M137,203l-4,4h4V203L137,203z"/>
		</g>
		<g>
			<path class="st1" d="M146.5,204.2v2.3h-2.3L146.5,204.2 M147,203l-4,4h4V203L147,203z"/>
		</g>
		<g>
			<path class="st1" d="M156.5,204.2v2.3h-2.3L156.5,204.2 M157,203l-4,4h4V203L157,203z"/>
		</g>
		<g>
			<path class="st1" d="M126.5,214.2v2.3h-2.3L126.5,214.2 M127,213l-4,4h4V213L127,213z"/>
		</g>
		<g>
			<path class="st1" d="M136.5,214.2v2.3h-2.3L136.5,214.2 M137,213l-4,4h4V213L137,213z"/>
		</g>
		<g>
			<path class="st1" d="M146.5,214.2v2.3h-2.3L146.5,214.2 M147,213l-4,4h4V213L147,213z"/>
		</g>
		<g>
			<path class="st1" d="M156.5,214.2v2.3h-2.3L156.5,214.2 M157,213l-4,4h4V213L157,213z"/>
		</g>
		<g>
			<path class="st1" d="M126.5,224.2v2.3h-2.3L126.5,224.2 M127,223l-4,4h4V223L127,223z"/>
		</g>
		<g>
			<path class="st1" d="M136.5,224.2v2.3h-2.3L136.5,224.2 M137,223l-4,4h4V223L137,223z"/>
		</g>
		<g>
			<path class="st1" d="M146.5,224.2v2.3h-2.3L146.5,224.2 M147,223l-4,4h4V223L147,223z"/>
		</g>
		<g>
			<path class="st1" d="M156.5,224.2v2.3h-2.3L156.5,224.2 M157,223l-4,4h4V223L157,223z"/>
		</g>
		<g>
			<path class="st1" d="M126.5,234.2v2.3h-2.3L126.5,234.2 M127,233l-4,4h4V233L127,233z"/>
		</g>
		<g>
			<path class="st1" d="M136.5,234.2v2.3h-2.3L136.5,234.2 M137,233l-4,4h4V233L137,233z"/>
		</g>
		<g>
			<path class="st1" d="M146.5,234.2v2.3h-2.3L146.5,234.2 M147,233l-4,4h4V233L147,233z"/>
		</g>
		<g>
			<path class="st1" d="M156.5,234.2v2.3h-2.3L156.5,234.2 M157,233l-4,4h4V233L157,233z"/>
		</g>
	</g>
	<g>
		<g>
			<path class="st1" d="M166.5,204.2v2.3h-2.3L166.5,204.2 M167,203l-4,4h4V203L167,203z"/>
		</g>
		<g>
			<path class="st1" d="M176.5,204.2v2.3h-2.3L176.5,204.2 M177,203l-4,4h4V203L177,203z"/>
		</g>
		<g>
			<path class="st1" d="M186.5,204.2v2.3h-2.3L186.5,204.2 M187,203l-4,4h4V203L187,203z"/>
		</g>
		<g>
			<path class="st1" d="M196.5,204.2v2.3h-2.3L196.5,204.2 M197,203l-4,4h4V203L197,203z"/>
		</g>
		<g>
			<path class="st1" d="M166.5,214.2v2.3h-2.3L166.5,214.2 M167,213l-4,4h4V213L167,213z"/>
		</g>
		<g>
			<path class="st1" d="M176.5,214.2v2.3h-2.3L176.5,214.2 M177,213l-4,4h4V213L177,213z"/>
		</g>
		<g>
			<path class="st1" d="M186.5,214.2v2.3h-2.3L186.5,214.2 M187,213l-4,4h4V213L187,213z"/>
		</g>
		<g>
			<path class="st1" d="M196.5,214.2v2.3h-2.3L196.5,214.2 M197,213l-4,4h4V213L197,213z"/>
		</g>
		<g>
			<path class="st1" d="M166.5,224.2v2.3h-2.3L166.5,224.2 M167,223l-4,4h4V223L167,223z"/>
		</g>
		<g>
			<path class="st1" d="M176.5,224.2v2.3h-2.3L176.5,224.2 M177,223l-4,4h4V223L177,223z"/>
		</g>
		<g>
			<path class="st1" d="M186.5,224.2v2.3h-2.3L186.5,224.2 M187,223l-4,4h4V223L187,223z"/>
		</g>
		<g>
			<path class="st1" d="M196.5,224.2v2.3h-2.3L196.5,224.2 M197,223l-4,4h4V223L197,223z"/>
		</g>
		<g>
			<path class="st1" d="M166.5,234.2v2.3h-2.3L166.5,234.2 M167,233l-4,4h4V233L167,233z"/>
		</g>
		<g>
			<path class="st1" d="M176.5,234.2v2.3h-2.3L176.5,234.2 M177,233l-4,4h4V233L177,233z"/>
		</g>
		<g>
			<path class="st1" d="M186.5,234.2v2.3h-2.3L186.5,234.2 M187,233l-4,4h4V233L187,233z"/>
		</g>
		<g>
			<path class="st1" d="M196.5,234.2v2.3h-2.3L196.5,234.2 M197,233l-4,4h4V233L197,233z"/>
		</g>
	</g>
	<g>
		<g>
			<path class="st1" d="M206.5,204.2v2.3h-2.3L206.5,204.2 M207,203l-4,4h4V203L207,203z"/>
		</g>
		<g>
			<path class="st1" d="M216.5,204.2v2.3h-2.3L216.5,204.2 M217,203l-4,4h4V203L217,203z"/>
		</g>
		<g>
			<path class="st1" d="M226.5,204.2v2.3h-2.3L226.5,204.2 M227,203l-4,4h4V203L227,203z"/>
		</g>
		<g>
			<path class="st1" d="M236.5,204.2v2.3h-2.3L236.5,204.2 M237,203l-4,4h4V203L237,203z"/>
		</g>
		<g>
			<path class="st1" d="M206.5,214.2v2.3h-2.3L206.5,214.2 M207,213l-4,4h4V213L207,213z"/>
		</g>
		<g>
			<path class="st1" d="M216.5,214.2v2.3h-2.3L216.5,214.2 M217,213l-4,4h4V213L217,213z"/>
		</g>
		<g>
			<path class="st1" d="M226.5,214.2v2.3h-2.3L226.5,214.2 M227,213l-4,4h4V213L227,213z"/>
		</g>
		<g>
			<path class="st1" d="M236.5,214.2v2.3h-2.3L236.5,214.2 M237,213l-4,4h4V213L237,213z"/>
		</g>
		<g>
			<path class="st1" d="M206.5,224.2v2.3h-2.3L206.5,224.2 M207,223l-4,4h4V223L207,223z"/>
		</g>
		<g>
			<path class="st1" d="M216.5,224.2v2.3h-2.3L216.5,224.2 M217,223l-4,4h4V223L217,223z"/>
		</g>
		<g>
			<path class="st1" d="M226.5,224.2v2.3h-2.3L226.5,224.2 M227,223l-4,4h4V223L227,223z"/>
		</g>
		<g>
			<path class="st1" d="M236.5,224.2v2.3h-2.3L236.5,224.2 M237,223l-4,4h4V223L237,223z"/>
		</g>
		<g>
			<path class="st1" d="M206.5,234.2v2.3h-2.3L206.5,234.2 M207,233l-4,4h4V233L207,233z"/>
		</g>
		<g>
			<path class="st1" d="M216.5,234.2v2.3h-2.3L216.5,234.2 M217,233l-4,4h4V233L217,233z"/>
		</g>
		<g>
			<path class="st1" d="M226.5,234.2v2.3h-2.3L226.5,234.2 M227,233l-4,4h4V233L227,233z"/>
		</g>
		<g>
			<path class="st1" d="M236.5,234.2v2.3h-2.3L236.5,234.2 M237,233l-4,4h4V233L237,233z"/>
		</g>
	</g>
</g>
</svg>
