<?xml version="1.0" encoding="utf-8"?>
<!-- Generator: Adobe Illustrator 19.1.0, SVG Export Plug-In . SVG Version: 6.00 Build 0)  -->
<!DOCTYPE svg PUBLIC "-//W3C//DTD SVG 1.0//EN" "http://www.w3.org/TR/2001/REC-SVG-20010904/DTD/svg10.dtd">
<svg version="1.0" id="Layer_1" xmlns="http://www.w3.org/2000/svg" xmlns:xlink="http://www.w3.org/1999/xlink" x="0px" y="0px"
	 viewBox="0 0 40 40" style="enable-background:new 0 0 40 40;" xml:space="preserve">
<style type="text/css">
	.st0{fill:#E5EAA4;}
	.st1{fill:#A8C4A2;}
	.st2{fill:#FF245B;}
</style>
<rect class="st0" width="40" height="40"/>
<rect x="14.4" y="1.4" transform="matrix(0.7071 0.7071 -0.7071 0.7071 7.9289 -9.1421)" class="st1" width="1.2" height="7.3"/>
<rect x="34.4" y="1.4" transform="matrix(0.7071 0.7071 -0.7071 0.7071 13.7868 -23.2843)" class="st1" width="1.2" height="7.3"/>
<rect x="4.4" y="11.4" transform="matrix(0.7071 0.7071 -0.7071 0.7071 12.0711 0.8579)" class="st1" width="1.2" height="7.3"/>
<rect x="24.4" y="11.4" transform="matrix(0.7071 0.7071 -0.7071 0.7071 17.9289 -13.2843)" class="st2" width="1.2" height="7.3"/>
<rect x="14.4" y="21.4" transform="matrix(0.7071 0.7071 -0.7071 0.7071 22.0711 -3.2843)" class="st2" width="1.2" height="7.3"/>
<rect x="34.4" y="21.4" transform="matrix(0.7071 0.7071 -0.7071 0.7071 27.9289 -17.4264)" class="st1" width="1.2" height="7.3"/>
<rect x="4.4" y="31.4" transform="matrix(0.7071 0.7071 -0.7071 0.7071 26.2132 6.7157)" class="st1" width="1.2" height="7.3"/>
<rect x="24.4" y="31.4" transform="matrix(0.7071 0.7071 -0.7071 0.7071 32.0711 -7.4264)" class="st1" width="1.2" height="7.3"/>
</svg>
